<?xml version="1.0" standalone="no"?>
<!DOCTYPE svg PUBLIC "-//W3C//DTD SVG 1.1//EN" "http://www.w3.org/Graphics/SVG/1.1/DTD/svg11.dtd" >
<!--
2013-9-30: Created.
-->
<svg>
<metadata>
Created by iconfont
</metadata>
<defs>

<font id="iconfont" horiz-adv-x="1024" >
  <font-face
    font-family="iconfont"
    font-weight="500"
    font-stretch="normal"
    units-per-em="1024"
    ascent="896"
    descent="-128"
  />
    <missing-glyph />
    
    <glyph glyph-name="youjiantou" unicode="&#59343;" d="M791.204046 327.381484C637.37048 181.824044 483.792877 36.266604 330.044632-109.120193c-63.308101-60.065907-157.587685 37.37055-94.023622 97.521778l410.308164 388.551336C508.877219 510.906719 371.425264 645.116481 233.802667 779.070279 171.347775 840.074716 265.71268 937.511173 327.99693 876.592057L791.204046 424.903262c25.510946-24.999021 26.193513-72.864041 0-97.607099z"  horiz-adv-x="1024" />

    
    <glyph glyph-name="zuojiantou" unicode="&#59342;" d="M232.760056 327.381484c153.748245-145.55744 307.411169-291.114879 461.159414-436.501677 63.308101-60.065907 157.587685 37.37055 94.023621 97.521778L377.634928 376.952921c137.451955 133.953798 274.90391 268.163559 412.441186 402.117358C852.616326 840.074716 758.251421 937.511173 695.967171 876.592057L232.760056 424.903262c-25.510946-24.999021-26.193513-72.864041 0-97.607099z"  horiz-adv-x="1024" />

    
    <glyph glyph-name="jiantou2" unicode="&#59341;" d="M891.98 58.91999999999996a47.43 47.43 0 0 1 0-66.105 45.135 45.135 0 0 1 64.755 0l374.355 374.175a47.43 47.43 0 0 1 0 66.06L956.69 775.5a45.135 45.135 0 0 1-64.71 0 47.43 47.43 0 0 1 0-66.105l296.1-262.53H130.31C104.975 446.775 84.5 425.85 84.5 399.975c0-25.785 20.475-46.71 45.765-46.71l1058.04 0.045-296.325-294.435z"  horiz-adv-x="1484" />

    
    <glyph glyph-name="jiantou1" unicode="&#59339;" d="M1413.50000029 322.125l-289.95000029-327.375c-29.25-30.97500029-72.97499971-30.97500029-102.22499971 0a78.00000029 78.00000029 0 0 0 0 108.29999971l173.25 203.55000029H172.475C128.75000029 306.6 99.50000029 337.57500029000005 99.50000029 384s29.25 77.4 72.97499971 77.4h1022.10000029l-187.80000029 203.55000029c-14.625 30.97500029-14.625 77.4 14.55000029 108.29999971 29.25 30.97500029 73.05000029 30.97500029 102.22499971 0l290.025-311.85c14.55000029-15.525 72.97499971-77.4 0-139.275z"  horiz-adv-x="1621" />

    
    <glyph glyph-name="xiangzuo" unicode="&#59340;" d="M591.543727 858.460857a127.99544 127.99544 0 0 0 0-180.985552L436.989233 522.984809H1151.971761a127.99544 127.99544 0 1 0 0-255.990881H436.989233l154.554494-154.554494a127.99544 127.99544 0 0 0 7.423735-172.793844l-7.423735-8.191708a127.99544 127.99544 0 0 0-181.04955 0L48.459074 293.488984a130.107365 130.107365 0 0 0-4.671833 4.927825 128.187433 128.187433 0 0 0 0.25599 193.145119l4.479841 4.863827L410.430179 858.460857a127.99544 127.99544 0 0 0 181.04955 0z"  horiz-adv-x="1280" />

    
    <glyph glyph-name="cela" unicode="&#59337;" d="M141.21142578 754.78857422m43.62218513 0l654.33277819 0q43.62218513 0 43.62218512-43.62218513l0 0q0-43.62218513-43.62218512-43.6221851l-654.33277819 0q-43.62218513 0-43.62218513 43.6221851l0 0q0 43.62218513 43.62218513 43.62218513ZM315.70016625 427.62218513m43.62218583 0l479.84403702 0q43.62218513 0 43.62218512-43.62218513l0 0q0-43.62218513-43.62218512-43.62218513l-479.84403701 0q-43.62218513 0-43.62218584 43.62218513l0 0q0 43.62218513 43.62218583 43.62218513ZM141.21142578 100.45579600999997m43.62218513 0l654.33277819 0q43.62218513 0 43.62218512-43.62218511l0 0q0-43.62218513-43.62218512-43.62218512l-654.33277819 0q-43.62218513 0-43.62218513 43.62218512l0 0q0 43.62218513 43.62218513 43.62218511Z"  horiz-adv-x="1024" />

    
    <glyph glyph-name="guanbi" unicode="&#59338;" d="M236.853594 166.77556m28.963094 28.963094l434.446406 434.446407q28.963094 28.963094 57.926188 0l0 0q28.963094-28.963094 0-57.926188l-434.446406-434.446406q-28.963094-28.963094-57.926188 0l0 0q-28.963094 28.963094 0 57.926187ZM294.779782 659.148154m28.963094-28.963093l434.446406-434.446407q28.963094-28.963094 0-57.926187l0 0q-28.963094-28.963094-57.926188 0l-434.446406 434.446406q-28.963094 28.963094 0 57.926188l0 0q28.963094 28.963094 57.926188 0Z"  horiz-adv-x="1024" />

    
    <glyph glyph-name="jiantou" unicode="&#59336;" d="M2061.5993197 341.69717927l-201.97246678-223.82892387c-20.35235705-21.15141037-50.8573911-21.15141037-71.16274455 0a52.59650675 52.59650675 0 0 0 0 74.02993628l120.6100416 139.17627941H257.3370205C226.78498344 331.0744711 206.4796294 352.22588145 206.4796294 384c0 31.72711554 20.35235705 52.9255289 50.8573911 52.9255289h1651.73712947l-130.76271862 139.12927642c-10.19968001 21.15141037-10.19968001 52.9255289 10.15267703 74.07693928 20.30535404 21.15141037 50.81038751 21.15141037 71.16274455 0l201.97246677-213.2062157c10.15267703-10.62270818 50.81038751-52.9255289 0-95.22834962z"  horiz-adv-x="3151" />

    
    <glyph glyph-name="01" unicode="&#59330;" d="M512 896c282.76736 0 512-229.23264 512-512S794.76736-128 512-128 0 101.23264 0 384 229.23264 896 512 896z m0-40.96C251.84256 855.04 40.96 644.15744 40.96 384s210.88256-471.04 471.04-471.04 471.04 210.88256 471.04 471.04S772.15744 855.04 512 855.04zM630.76352 609.28c13.08672 0 21.99552-12.94336 17.05984-24.7808L590.60224 447.488h107.7248c15.85152 0 24.30976-18.2272 13.86496-29.83936L448.04096 123.96544c-12.84096-14.27456-36.6592-1.90464-31.68256 16.46592l49.17248 181.18656h-98.9184c-12.9024 0-21.83168 12.61568-17.22368 24.3712l98.304 251.6992A18.432 18.432 0 0 0 464.896 609.28H630.784z m-34.0992-40.96h-116.49024l-80.36352-205.74208h119.27552l-38.23616-140.84096 166.21568 184.77056h-117.9648L596.66432 568.32z"  horiz-adv-x="1024" />

    
    <glyph glyph-name="06" unicode="&#59331;" d="M512 896c282.76736 0 512-229.23264 512-512S794.76736-128 512-128 0 101.23264 0 384 229.23264 896 512 896z m0-40.96C251.84256 855.04 40.96 644.15744 40.96 384s210.88256-471.04 471.04-471.04 471.04 210.88256 471.04 471.04S772.15744 855.04 512 855.04zM471.04 588.8a40.96 40.96 0 0 0 40.96-40.96v-102.4a40.96 40.96 0 0 0-40.96-40.96h-102.4a40.96 40.96 0 0 0-40.96 40.96v102.4a40.96 40.96 0 0 0 40.96 40.96h102.4z m0-40.96h-102.4v-102.4h102.4v102.4zM471.04 363.52a40.96 40.96 0 0 0 40.96-40.96v-102.4a40.96 40.96 0 0 0-40.96-40.96h-102.4a40.96 40.96 0 0 0-40.96 40.96v102.4a40.96 40.96 0 0 0 40.96 40.96h102.4z m0-40.96h-102.4v-102.4h102.4v102.4zM696.32 588.8a40.96 40.96 0 0 0 40.96-40.96v-102.4a40.96 40.96 0 0 0-40.96-40.96h-102.4a40.96 40.96 0 0 0-40.96 40.96v102.4a40.96 40.96 0 0 0 40.96 40.96h102.4z m0-40.96h-102.4v-102.4h102.4v102.4zM620.40064 382.976a40.96 40.96 0 0 0 57.91744 0l72.41728-72.41728a40.96 40.96 0 0 0 0-57.91744L678.2976 180.224a40.96 40.96 0 0 0-57.91744 0l-72.41728 72.41728a40.96 40.96 0 0 0 0 57.91744l72.41728 72.41728z m28.95872-28.95872L576.96256 281.6l72.3968-72.41728L721.77664 281.6l-72.41728 72.41728z"  horiz-adv-x="1024" />

    
    <glyph glyph-name="03" unicode="&#59332;" d="M512 896c282.76736 0 512-229.23264 512-512S794.76736-128 512-128 0 101.23264 0 384 229.23264 896 512 896z m0-40.96C251.84256 855.04 40.96 644.15744 40.96 384s210.88256-471.04 471.04-471.04 471.04 210.88256 471.04 471.04S772.15744 855.04 512 855.04zM675.84 547.84a61.44 61.44 0 0 0 61.44-61.44v-245.76a61.44 61.44 0 0 0-61.44-61.44H348.16a61.44 61.44 0 0 0-61.44 61.44V486.4a61.44 61.44 0 0 0 61.44 61.44h327.68z m0-40.96H348.16a20.48 20.48 0 0 1-20.33664-18.08384L327.68 486.4v-245.76a20.48 20.48 0 0 1 18.08384-20.33664L348.16 220.16h327.68a20.48 20.48 0 0 1 20.33664 18.08384L696.32 240.64V486.4a20.48 20.48 0 0 1-18.08384 20.33664L675.84 506.88zM389.12 588.8m20.48 0l0 0q20.48 0 20.48-20.48l0-61.44q0-20.48-20.48-20.48l0 0q-20.48 0-20.48 20.48l0 61.44q0 20.48 20.48 20.48ZM614.4 588.8m20.48 0l0 0q20.48 0 20.48-20.48l0-61.44q0-20.48-20.48-20.48l0 0q-20.48 0-20.48 20.48l0 61.44q0 20.48 20.48 20.48ZM368.64 445.44m20.48 0l20.48 0q20.48 0 20.48-20.48l0-20.48q0-20.48-20.48-20.48l-20.48 0q-20.48 0-20.48 20.48l0 20.48q0 20.48 20.48 20.48ZM368.64 322.56m20.48 0l20.48 0q20.48 0 20.48-20.48l0-20.48q0-20.48-20.48-20.48l-20.48 0q-20.48 0-20.48 20.48l0 20.48q0 20.48 20.48 20.48ZM491.52 322.56m20.48 0l20.48 0q20.48 0 20.48-20.48l0-20.48q0-20.48-20.48-20.48l-20.48 0q-20.48 0-20.48 20.48l0 20.48q0 20.48 20.48 20.48ZM491.52 445.44m20.48 0l20.48 0q20.48 0 20.48-20.48l0-20.48q0-20.48-20.48-20.48l-20.48 0q-20.48 0-20.48 20.48l0 20.48q0 20.48 20.48 20.48ZM593.92 445.44m20.48 0l20.48 0q20.48 0 20.48-20.48l0-20.48q0-20.48-20.48-20.48l-20.48 0q-20.48 0-20.48 20.48l0 20.48q0 20.48 20.48 20.48Z"  horiz-adv-x="1024" />

    
    <glyph glyph-name="05" unicode="&#59333;" d="M512 896c282.76736 0 512-229.23264 512-512S794.76736-128 512-128 0 101.23264 0 384 229.23264 896 512 896z m0-40.96C251.84256 855.04 40.96 644.15744 40.96 384s210.88256-471.04 471.04-471.04 471.04 210.88256 471.04 471.04S772.15744 855.04 512 855.04zM513.08544 609.28h-1.49504c-2.9696 0-5.87776-0.34816-8.76544-1.024l-143.2576-31.70304-2.00704-0.55296-0.96256-0.32768C326.94272 565.92384 307.2 537.7024 307.2 505.71264v-155.36128c0-32.17408 11.75552-62.91456 34.4064-90.84928 16.5888-20.41856 39.0144-39.38304 66.60096-56.44288 20.25472-12.4928 41.82016-23.1424 62.50496-31.66208 6.79936-2.82624 13.70112-5.46816 20.5824-7.92576l6.3488-2.19136c6.3488-2.08896 9.29792-2.56 14.58176-2.56l3.54304 0.16384c3.52256 0.28672 7.00416 1.06496 10.30144 2.2528l1.29024 0.53248a430.51008 430.51008 0 0 1 88.43264 41.43104c27.648 17.08032 50.03264 36.00384 66.62144 56.46336C705.06496 287.49824 716.8 318.19776 716.8 350.4128v155.29984c0 30.59712-18.06336 57.7536-45.60896 68.608l-4.75136 1.67936-2.00704 0.55296-143.36 31.744a41.75872 41.75872 0 0 1-7.9872 0.96256z m-1.29024-40.98048h0.32768l142.41792-31.51872c12.65664-4.15744 21.2992-16.52736 21.2992-31.06816v-155.29984c0-22.44608-8.31488-44.15488-25.25184-65.06496-13.47584-16.65024-32.39936-32.62464-56.32-47.4112-15.68768-9.70752-32.4608-18.26816-49.50016-25.66144a384 384 0 0 0-30.43328-11.776l-2.10944-0.8192-1.00352 0.2048-6.20544 2.19136a393.3184 393.3184 0 0 0-18.6368 7.168 396.94336 396.94336 0 0 0-56.64768 28.65152c-23.8592 14.78656-42.84416 30.80192-56.32 47.43168C356.4544 306.176 348.16 327.92576 348.16 350.35136v155.36128l0.12288 3.072c1.04448 12.1856 8.192 22.44608 18.51392 26.99264l2.60096 1.024 142.39744 31.49824zM577.18784 457.70752a20.48 20.48 0 0 0 34.2016-22.38464l-1.41312-2.1504-78.47936-104.93952a20.48 20.48 0 0 0-26.66496-5.44768l-2.17088 1.4336-64.512 49.21344a20.48 20.48 0 0 0 22.69184 33.9968l2.12992-1.4336 48.08704-36.6592 66.12992 88.3712z"  horiz-adv-x="1024" />

    
    <glyph glyph-name="04" unicode="&#59334;" d="M512 896c282.76736 0 512-229.23264 512-512S794.76736-128 512-128 0 101.23264 0 384 229.23264 896 512 896z m0-40.96C251.84256 855.04 40.96 644.15744 40.96 384s210.88256-471.04 471.04-471.04 471.04 210.88256 471.04 471.04S772.15744 855.04 512 855.04zM348.16 337.46944v-99.1232c0-9.3184 7.02464-16.9984 16.0768-18.06336l2.12992-0.12288h89.76384v-40.96h-93.0816A55.84896 55.84896 0 0 0 307.2 235.04896v102.42048h40.96z m368.64 0v-102.4A55.84896 55.84896 0 0 0 660.95104 179.2h-93.10208v40.96h89.78432a18.20672 18.20672 0 0 1 18.08384 16.0768L675.84 238.3872v99.10272h40.96zM456.13056 588.8v-40.96h-89.76384a18.20672 18.20672 0 0 1-18.08384-16.0768L348.16 529.6128v-80.46592h-40.96v83.7632A55.84896 55.84896 0 0 0 363.04896 588.8h93.0816z m204.8 0A55.84896 55.84896 0 0 0 716.8 532.95104v-83.78368h-40.96v80.4864a18.20672 18.20672 0 0 1-16.0768 18.06336L657.6128 547.84h-89.78432v40.96h93.10208zM521.4208 465.92c42.02496 0 76.0832-33.01376 76.0832-73.728s-34.05824-73.728-76.0832-73.728c-41.984 0-76.06272 33.01376-76.06272 73.728S479.4368 465.92 521.4208 465.92z m0-40.96c-19.6608 0-35.10272-14.9504-35.10272-32.768 0-17.8176 15.44192-32.768 35.10272-32.768 19.68128 0 35.1232 14.9504 35.1232 32.768 0 17.8176-15.44192 32.768-35.1232 32.768zM521.4208 355.328c68.52608 0 124.96896-32.256 132.3008-73.728h-39.56736c-9.35936 18.55488-45.4656 36.864-92.73344 36.864-47.22688 0-83.3536-18.30912-92.71296-36.864H389.12c7.3728 41.472 63.7952 73.728 132.3008 73.728z"  horiz-adv-x="1024" />

    
    <glyph glyph-name="02" unicode="&#59335;" d="M512 896c282.76736 0 512-229.23264 512-512S794.76736-128 512-128 0 101.23263999999995 0 384 229.23264 896 512 896z m0-40.96C251.84256 855.04 40.96 644.15744 40.96 384s210.88256-471.04 471.04-471.04 471.04 210.88256 471.04 471.04S772.15744 855.04 512 855.04zM471.57248 588.8c10.83392 0 20.31616-4.05504 27.42272-10.50624l2.53952-2.51904 1.024-1.14688 100.2496-0.02048 4.7104-0.08192c14.5408-0.53248 27.05408-3.15392 37.888-9.27744l4.13696-2.58048a55.0912 55.0912 0 0 0 27.01312-40.79616l0.4096-3.9936 0.12288-4.096c0-7.5776-1.4336-14.7456-4.05504-21.7088l-1.69984-4.13696-1.16736-2.37568 2.92864-2.8672c3.62496-3.72736 6.88128-7.90528 9.728-12.51328l2.70336-4.75136 1.96608-3.97312 1.67936-4.21888a69.632 69.632 0 0 0 3.3792-18.14528l0.14336-4.73088v-104.98048a40.96 40.96 0 0 0-23.3472-36.98688l-3.03104-1.29024-0.59392-0.18432H675.84a40.96 40.96 0 0 0 40.48896-34.77504l0.36864-3.13344 0.1024-3.072v-28.3648a40.96 40.96 0 0 0-37.888-40.83712l-3.072-0.12288h-140.43136l-2.10944 0.06144-2.80576 0.14336-2.12992 0.16384a68.89472 68.89472 0 0 0-33.91488 13.312l-3.6864 2.90816-2.7648 2.49856a68.34176 68.34176 0 0 0-12.36992 16.85504l-2.23232 4.7104-29.3888-29.85984a40.96 40.96 0 0 0-21.95456-11.5712l-3.584-0.47104-3.64544-0.16384H348.16c-35.36896 0-53.6576 41.45152-31.19104 67.52256l2.1504 2.31424 40.18176 40.69376-1.69984 0.43008a41.02144 41.02144 0 0 0-28.61056 32.768l-0.4096 3.39968-0.1024 3.072v133.3248c0 13.18912 6.2464 24.94464 15.93344 32.41984l3.01056 2.12992-0.2048 1.2288a40.1408 40.1408 0 0 0 1.90464 18.67776l1.49504 3.72736 1.39264 2.74432 23.3472 42.496a40.96 40.96 0 0 0 33.34144 22.528l3.2768 0.12288h59.5968z m-102.13376-126.07488v-133.3248h86.528L348.16 220.15999999999997h66.6624l93.63456 95.0272v-63.81568l0.12288-3.46112c0.6144-7.86432 3.42016-14.27456 8.3968-19.2512 3.8912-3.23584 7.9872-5.36576 12.32896-6.38976l3.2768-0.55296 2.82624-0.14336H675.84v28.38528h-93.61408l-2.29376 0.14336a13.37344 13.37344 0 0 0-9.07264 5.5296 9.60512 9.60512 0 0 0-2.37568 4.9152l-0.34816 2.33472-0.1024 2.6624v53.90336h-55.31648l1.57696 1.8432 2.49856 3.15392 1.59744 2.10944 4.23936 2.82624h129.10592V434.3808l-0.1024 2.74432a28.73344 28.73344 0 0 1-1.3312 7.168c-4.7104 10.26048-12.0832 16.24064-22.05696 17.94048l-3.072 0.38912-3.23584 0.12288h-18.432l22.69184 29.7984 2.31424 3.11296c5.07904 7.14752 7.61856 13.18912 7.61856 18.16576 0 6.61504-2.84672 11.34592-8.51968 14.17216-3.6864 2.94912-9.6256 4.75136-17.89952 5.40672l-3.6864 0.2048-3.95264 0.06144H464.4864l7.08608 14.19264h-59.5968l-24.10496-43.97056h175.9232l1.10592-0.12288c2.08896-0.45056 3.13344-2.31424 3.13344-5.55008 0-2.84672-1.4336-6.144-4.25984-9.9328l-19.10784-24.65792-0.75776-0.88064h-103.54688v-29.77792h39.7312v-73.76896h-49.664v103.54688H369.4592zM552.96 431.77984h48.37376v-74.69056H552.96z"  horiz-adv-x="1024" />

    
    <glyph glyph-name="rongliang" unicode="&#59326;" d="M571.617882 879.736471L904.146824 684.423529C941.040941 662.723765 963.764706 622.682353 963.764706 579.343059v-390.686118c0-43.339294-22.738824-83.395765-59.617882-105.065412L571.617882-111.736471a117.458824 117.458824 0 0 0-119.235764 0L119.853176 83.591529C82.959059 105.276235 60.235294 145.317647 60.235294 188.656941V579.343059c0 43.339294 22.738824 83.395765 59.617882 105.065412L452.382118 879.736471a117.458824 117.458824 0 0 0 119.235764 0z m-22.362353-39.393883a73.396706 73.396706 0 0 1-71.183058 1.852236l-3.328-1.852236L142.215529 644.999529a76.016941 76.016941 0 0 1-37.195294-62.132705l-0.075294-3.523765v-390.686118c0-25.901176 12.995765-49.935059 34.304-63.834353l2.966588-1.822117 332.528942-195.343059a73.396706 73.396706 0 0 1 71.183058-1.852236l3.328 1.852236 332.528942 195.343059a76.016941 76.016941 0 0 1 37.195294 62.132705l0.075294 3.523765V579.343059c0 25.901176-12.995765 49.935059-34.304 63.834353l-2.966588 1.822117L549.255529 840.342588zM582.038588 568.470588c47.088941 0 84.886588-47.36 84.886588-105.396706 0-4.065882-0.421647-8.282353-1.219764-12.589176-2.575059-13.854118-8.884706-28.220235-18.462118-44.378353l-12.197647-19.380706-4.803765-7.905882-1.310117-2.379294-0.271059-0.617412c-2.635294-8.975059-2.665412-15.254588-0.813177-17.091765l1.189647-1.054118c1.475765-1.189647 3.538824-2.484706 6.038589-3.84 1.445647-0.783059 2.906353-1.505882 4.291764-2.16847l3.809883-1.701647 72.734117-28.837647c15.013647-6.625882 25.735529-21.744941 25.73553-37.722353v-7.424c0-18.627765-14.682353-31.277176-34.18353-31.277177h-11.339294l-0.692706 2.861177a67.538824 67.538824 0 0 1-13.025882 26.202353l-4.924235 6.113882h29.424941v3.523765c0 1.355294-1.776941 3.764706-4.111059 5.089882l-1.204706 0.572235-69.436235 27.467295c-10.992941 4.336941-21.639529 10.089412-28.702118 17.152-8.779294 8.764235-12.589176 20.630588-11.399529 35.087058a85.232941 85.232941 0 0 0 3.312941 17.076706 40.884706 40.884706 0 0 0 1.792 4.909177l1.084235 2.394353 1.310118 2.499764 1.656471 2.861177 3.403294 5.451294 7.604706 11.745882c13.191529 20.781176 19.968 35.403294 19.968 47.36 0 19.998118-6.023529 38.505412-16.865883 52.10353-9.366588 11.745882-21.187765 18.115765-33.219764 18.115764h-0.210824l-2.966588 1.355295a119.612235 119.612235 0 0 1-23.883294 22.091294l-5.737412 3.975529 6.475294 2.605177a69.978353 69.978353 0 0 0 26.262588 5.150117zM481.445647 530.823529c40.719059 0 75.459765-42.812235 75.459765-97.325176 0-3.162353-0.331294-6.535529-1.008941-10.089412-2.153412-11.369412-7.484235-23.973647-15.691295-38.26447l-3.056941-5.150118-9.712941-15.119059-4.623059-7.424-2.93647-4.833882-2.605177-4.457412a49.739294 49.739294 0 0 1-3.870117-7.770353c-5.360941-17.92-5.406118-32.391529 5.014588-42.616471l0.63247-0.602352c3.508706-3.297882 7.860706-6.128941 13.146353-8.929883 4.141176-2.198588 8.176941-4.035765 11.444706-5.376l82.130824-32c10.556235-3.794824 17.995294-13.552941 17.995294-22.708706v-8.478117c0-7.604706-5.918118-12.619294-16.534588-12.619294H336.534588c-10.616471 0-16.534588 5.014588-16.534588 12.619294v8.478117l0.105412 1.92753c0.948706 8.372706 7.905882 16.700235 17.423059 20.118588l72.31247 32.150588-1.159529-0.391529a147.877647 147.877647 0 0 1 15.088941 5.616941c6.791529 2.951529 12.077176 5.872941 16.188235 9.697882l2.078118 2.108236c9.080471 10.164706 10.24 30.042353 4.050823 44.378353l-1.415529 2.891294-10.330353 16.384-4.487529 7.228235-4.382118 7.318588a150.919529 150.919529 0 0 0-1.159529 2.017883c-7.740235 13.854118-13.327059 26.729412-16.203295 38.354823a65.325176 65.325176 0 0 0-2.108235 15.540706c0 54.512941 34.755765 97.325176 75.444706 97.325176z m68.020706-201.231058l1.686588 2.635294 10.571294 16.128c2.906353 4.457412 5.436235 8.478118 7.875765 12.513882 11.941647 19.802353 19.907765 37.662118 23.296 55.521882a91.858824 91.858824 0 0 1 1.656471 17.106824c0 73.788235-49.664 134.972235-113.091765 134.972235-63.442824 0-113.106824-61.199059-113.106824-134.972235a102.4 102.4 0 0 1 3.20753-24.576c3.794824-15.36 10.646588-31.171765 19.907764-47.691294l3.870118-6.671059 6.083765-9.923765 10.044235-15.676235 0.271059-0.692706a13.432471 13.432471 0 0 0 0.542118-3.282823V323.764706l-3.553883-1.686588a112.579765 112.579765 0 0 0-7.228235-2.831059l-3.870118-1.295059-2.138353-0.798118-71.981176-32.045176c-23.296-8.297412-41.155765-31.322353-41.155765-56.952471v-8.478117c0-29.906824 24.033882-50.266353 54.181647-50.266353h290.69553c30.147765 0 54.181647 20.359529 54.181647 50.266353v8.478117c0 24.636235-16.519529 47.284706-39.55953 56.832l-83.83247 32.677647-3.855059 1.686589a100.005647 100.005647 0 0 0-2.138353 1.024l-3.644235 1.927529-0.527059 0.301176 0.090353 0.602353c0.286118 1.761882 0.798118 3.930353 1.520941 6.384942z"  horiz-adv-x="1024" />

    
    <glyph glyph-name="fuwu" unicode="&#59328;" d="M571.617882 879.736471L904.146824 684.423529C941.040941 662.723765 963.764706 622.682353 963.764706 579.343059v-390.686118c0-43.339294-22.738824-83.395765-59.617882-105.065412L571.617882-111.736471a117.458824 117.458824 0 0 0-119.235764 0L119.853176 83.591529C82.959059 105.276235 60.235294 145.317647 60.235294 188.656941V579.343059c0 43.339294 22.738824 83.395765 59.617882 105.065412L452.382118 879.736471a117.458824 117.458824 0 0 0 119.235764 0z m-22.39247-39.077647a73.200941 73.200941 0 0 1-71.122824 1.837176l-3.312941-1.837176-332.152471-195.46353a76.092235 76.092235 0 0 1-37.150117-62.192941L105.411765 579.463529v-390.957176c0-25.931294 12.980706-49.965176 34.258823-63.879529l2.966588-1.822118 332.137412-195.478588a73.200941 73.200941 0 0 1 71.122824-1.837177l3.312941 1.837177 332.152471 195.463529a76.092235 76.092235 0 0 1 37.150117 62.192941L918.588235 188.536471V579.478588a76.242824 76.242824 0 0 1-34.258823 63.87953l-2.966588 1.822117L549.225412 840.658824zM568.862118 598.497882a99.373176 99.373176 0 0 1-56.410353-20.705882l-0.451765-0.361412-0.451765 0.361412a99.237647 99.237647 0 0 1-60.53647 20.796235c-52.389647 0-93.364706-40.688941-93.364706-92.837647 0-33.475765 13.552941-61.078588 46.787765-97.430588l7.168-7.634824c2.484706-2.590118 5.059765-5.240471 7.740235-7.920941l8.31247-8.237176 8.929883-8.568471 9.532235-8.929882 11.384471-10.465882 22.196706-20.178824 8.508235-7.544471a36.517647 36.517647 0 0 1 48.052706 0.406589l7.905882 7.03247 26.172235 23.792941 12.363294 11.444706 9.231059 8.749177 8.628706 8.402823c47.179294 46.667294 65.792 77.854118 65.792 117.082353 0 52.148706-40.975059 92.837647-93.364706 92.837647l-4.126117-0.090353z m4.126117-37.556706c31.653647 0 55.717647-23.898353 55.717647-55.190588 0-22.437647-10.616471-43.414588-38.309647-73.472l-6.430117-6.821647c-1.114353-1.174588-2.258824-2.349176-3.433412-3.538823l-7.30353-7.318589-7.920941-7.695058-8.523294-8.07153-8.176941-7.589647-13.342118-12.212706-16.263529-14.742588-7.017412-6.234353-7.122823 6.354824-16.143059 14.637176-13.357177 12.212706-8.176941 7.589647-8.523294 8.071529-7.905882 7.68c-2.529882 2.499765-4.969412 4.939294-7.30353 7.333647l-6.716235 6.987295-6.159059 6.671058-5.586823 6.384942c-21.308235 25.027765-29.696 43.821176-29.696 63.774117 0 31.292235 24.064 55.190588 55.717647 55.190588 17.844706 0 35.087059-8.071529 46.667294-21.654588L512 522.496l14.320941 16.790588a61.786353 61.786353 0 0 0 46.667294 21.654588zM737.882353 466.823529a7.529412 7.529412 0 0 0 7.529412-7.936c-5.089882-94.147765-66.108235-177.242353-150.633412-208.820705l-4.261647-1.520942V188.235294a7.529412 7.529412 0 0 0-6.174118-7.408941l-1.355294-0.120471H557.176471a7.529412 7.529412 0 0 0-7.529412 7.529412v84.87153a7.529412 7.529412 0 0 0 5.872941 7.348705c83.245176 18.733176 144.128 90.895059 149.022118 179.260236a7.529412 7.529412 0 0 0 7.529411 7.107764z m-425.953882 0a7.529412 7.529412 0 0 0 7.529411-7.107764c4.939294-88.425412 66.710588-161.686588 148.781177-177.347765a7.529412 7.529412 0 0 0 6.113882-7.393882V188.235294a7.529412 7.529412 0 0 0-7.529412-7.529412h-25.810823a7.529412 7.529412 0 0 0-7.529412 7.529412l-0.015059 59.632941-4.261647 1.520941c-83.275294 30.825412-143.299765 111.013647-150.272 204.212706l-0.331294 5.300706A7.529412 7.529412 0 0 0 286.117647 466.823529z"  horiz-adv-x="1024" />

    
    <glyph glyph-name="ruyuanjilu" unicode="&#59314;" d="M787.456 768C819.1488 768 844.8 741.7344 844.8 709.376v-650.752c0-32.3584-25.6768-58.624-57.344-58.624H262.144C230.4512 0 204.8 26.2656 204.8 58.624V709.376C204.8 741.7088 230.4768 768 262.144 768h525.312z m0-51.2H262.144c-2.688 0-5.2736-2.2784-5.9648-5.6576l-0.1792-1.792v-650.7008c0-3.7376 2.2272-6.5536 4.8128-7.2704l1.3056-0.1792h525.3632c2.6624 0 5.248 2.2784 5.9392 5.6576l0.1792 1.792V709.3504c0 3.7376-2.2272 6.5536-4.8128 7.2704L787.4816 716.8zM638.1312 640L716.8 561.792v-372.3776a58.496 58.496 0 0 0-58.624-58.24h-40.1152a58.4448 58.4448 0 0 0-58.624 58.24V561.792L638.1568 640z m-0.0256-72.192l-27.4688-27.2896v-351.104a7.168 7.168 0 0 1 5.7088-6.8608l1.7152-0.1792h40.1408a7.424 7.424 0 0 1 7.1936 5.4784l0.2048 1.5616-0.0256 351.104-27.4688 27.2896zM332.8 742.4h51.2v-716.8h-51.2z"  horiz-adv-x="1049" />

    
    <glyph glyph-name="jingquyuyue" unicode="&#59315;" d="M768 768a76.8 76.8 0 0 0 76.8-76.8v-614.4a76.8 76.8 0 0 0-76.8-76.8H256a76.8 76.8 0 0 0-76.8 76.8V691.2a76.8 76.8 0 0 0 76.8 76.8h512z m0-51.2H256a25.6 25.6 0 0 1-25.4208-22.6048L230.4 691.2v-614.4a25.6 25.6 0 0 1 22.6048-25.4208L256 51.2h512a25.6 25.6 0 0 1 25.4208 22.6048L793.6 76.8V691.2a25.6 25.6 0 0 1-22.6048 25.4208L768 716.8zM307.2 588.8m25.6 0l256 0q25.6 0 25.6-25.6l0 0q0-25.6-25.6-25.6l-256 0q-25.6 0-25.6 25.6l0 0q0 25.6 25.6 25.6ZM307.2 409.6m25.6 0l179.2 0q25.6 0 25.6-25.6l0 0q0-25.6-25.6-25.6l-179.2 0q-25.6 0-25.6 25.6l0 0q0 25.6 25.6 25.6ZM673.536 300.1344a25.6 25.6 0 0 0 37.504-34.7136l-2.2016-2.3552-134.4768-128a25.6 25.6 0 0 0-32.2816-2.4576l-2.5856 2.048-70.3232 64a25.6 25.6 0 0 0 31.9488 39.8848l2.5088-1.9968 52.6848-47.9488 117.248 111.5392z"  horiz-adv-x="1024" />

    
    <glyph glyph-name="renlianshibie" unicode="&#59316;" d="M177.6896 195.072v-144.5632h164.5056V0H128v195.072h49.6896z m718.2592 0V0h-213.5552v50.2784h165.4528V195.072h48.1024zM342.2464 716.6976H179.84v-143.7696H128V768h214.272v-51.3024zM896 572.928h-50.2272V716.416h-163.328V768h213.504L896 572.928zM512 563.2a128 128 0 1 0 0-256 128 128 0 0 0 0 256z m0-51.2a76.8 76.8 0 1 1 0-153.6 76.8 76.8 0 0 1 0 153.6zM512 332.8c130.56 0 238.2592-78.1824 254.0288-179.2h-49.8176c-2.9952 20.5824-17.664 48.2304-46.08 74.2912-40.192 36.864-96.896 58.8288-158.1312 58.8288-61.2352 0-117.9392-21.9904-158.1312-58.8288-28.416-26.0608-43.0848-53.7088-46.08-74.2912h-49.8176c15.7696 101.0176 123.4688 179.2 254.0288 179.2zM281.6 358.4h460.8v-51.2H281.6z"  horiz-adv-x="1024" />

    
    <glyph glyph-name="bangdingnianpiao" unicode="&#59317;" d="M309.12 519.7568l36.224-36.1984-126.72-126.72a179.2 179.2 0 0 1 248.9856-257.6896l4.4288 4.2752 126.72 126.72 36.1984-36.224-126.72-126.72A230.4 230.4 0 0 0 182.4512 393.088l126.72 126.72z m181.0176 181.0176a230.4 230.4 0 0 0 325.8368-325.8368l-108.5952-108.5952-36.1984 36.1984 108.5952 108.6208a179.2 179.2 0 0 1-248.9856 257.6896l-4.4288-4.2752-108.6208-108.5952-36.1984 36.1984 108.5952 108.5952zM345.344 266.3424l289.6128 289.6384 36.224-36.224L381.5424 230.144z"  horiz-adv-x="1024" />

    
    <glyph glyph-name="goumainianpiao" unicode="&#59318;" d="M896 768a76.8 76.8 0 0 0 76.8-76.8v-614.4a76.8 76.8 0 0 0-76.8-76.8H128a76.8 76.8 0 0 0-76.8 76.8V691.2a76.8 76.8 0 0 0 76.8 76.8h768z m0-51.2H128a25.6 25.6 0 0 1-25.4208-22.6048L102.4 691.2v-614.4a25.6 25.6 0 0 1 22.6048-25.4208L128 51.2h768a25.6 25.6 0 0 1 25.4208 22.6048L921.6 76.8V691.2a25.6 25.6 0 0 1-22.6048 25.4208L896 716.8zM51.2 614.4h921.6v-51.2H51.2zM373.8368 153.6l91.0336 255.8976h-45.5168l-70.2464-208.5888h-1.0752l-70.2464 208.5888H232.2688L323.3024 153.6h50.5344z m159.8464 0v255.8976h-41.9328V153.6h41.9328z m92.1088 0v98.2016h63.4368c62.3616 0 93.5424 26.5216 93.5424 79.2064 0 52.3264-31.1808 78.4896-92.8256 78.4896h-106.0864V153.6h41.9328z m60.928 134.0416h-60.928v86.016h60.928c18.2784 0 31.8976-3.2256 40.4992-10.0352 8.6016-6.4512 13.2608-17.2032 13.2608-32.6144s-4.3008-26.5216-12.9024-33.3312c-8.6016-6.4512-22.2208-10.0352-40.8576-10.0352z"  horiz-adv-x="1024" />

    
    <glyph glyph-name="sheshi" unicode="&#59319;" d="M571.617882 879.736471L904.146824 684.423529C941.040941 662.723765 963.764706 622.682353 963.764706 579.343059v-390.686118c0-43.339294-22.738824-83.395765-59.617882-105.065412L571.617882-111.736471a117.458824 117.458824 0 0 0-119.235764 0L119.853176 83.591529C82.959059 105.276235 60.235294 145.317647 60.235294 188.656941V579.343059c0 43.339294 22.738824 83.395765 59.617882 105.065412L452.382118 879.736471a117.458824 117.458824 0 0 0 119.235764 0z m-22.362353-39.393883a73.396706 73.396706 0 0 1-71.183058 1.852236l-3.328-1.852236L142.215529 644.999529a76.016941 76.016941 0 0 1-37.195294-62.132705l-0.075294-3.523765v-390.686118c0-25.901176 12.995765-49.935059 34.304-63.834353l2.966588-1.822117 332.528942-195.343059a73.396706 73.396706 0 0 1 71.183058-1.852236l3.328 1.852236 332.528942 195.343059a76.016941 76.016941 0 0 1 37.195294 62.132705l0.075294 3.523765V579.343059c0 25.901176-12.995765 49.935059-34.304 63.834353l-2.966588 1.822117L549.255529 840.342588zM554.646588 564.48a155.015529 155.015529 0 0 0 37.25553-159.216941l-1.912471-5.315765 128.436706-128.436706a66.424471 66.424471 0 0 0 0.768-93.153882l-0.768-0.783059a66.424471 66.424471 0 0 0-93.153882-0.768l-129.219765 129.204706-0.722824-0.271059a155.015529 155.015529 0 0 0-162.409411 34.228706l-1.400471 1.385412a155.000471 155.000471 0 0 0-30.268235 176.399059 17.980235 17.980235 0 0 0 28.672 5.225411l74.932706-74.917647h43.083294v43.068236l-74.661647 74.676705a17.980235 17.980235 0 0 0 2.891294 27.78353l2.078117 1.159529a155.000471 155.000471 0 0 0 176.399059-30.268235z m-26.624-26.624a117.458824 117.458824 0 0 1-104.809412 32.376471l-0.948705-0.180706 63.322353-63.322353v-96.316236H389.270588l-63.292235 63.292236-0.150588-0.752941a117.232941 117.232941 0 0 1 29.108706-101.662118l3.026823-3.147294 1.234824-1.219765a117.308235 117.308235 0 0 1 118.603294-27.467294l4.818823 1.731765 22.799059 8.688941 146.040471-146.025412a28.762353 28.762353 0 0 1 38.249411-1.596235l1.882353 1.716706 0.557177 0.572235c10.300235 10.631529 10.752 27.256471 1.40047 38.430118l-1.746823 1.91247-145.664 145.679059 8.869647 23.280941a117.368471 117.368471 0 0 1-26.985412 124.009412z"  horiz-adv-x="1024" />

    
    <glyph glyph-name="jiaotong" unicode="&#59320;" d="M571.617882 879.736471L904.146824 684.423529C941.040941 662.723765 963.764706 622.682353 963.764706 579.343059v-390.686118c0-43.339294-22.738824-83.395765-59.617882-105.065412L571.617882-111.736471a117.458824 117.458824 0 0 0-119.235764 0L119.853176 83.591529C82.959059 105.276235 60.235294 145.317647 60.235294 188.656941V579.343059c0 43.339294 22.738824 83.395765 59.617882 105.065412L452.382118 879.736471a117.458824 117.458824 0 0 0 119.235764 0z m-22.362353-39.393883a73.396706 73.396706 0 0 1-71.183058 1.852236l-3.328-1.852236L142.215529 644.999529a76.016941 76.016941 0 0 1-37.195294-62.132705l-0.075294-3.523765v-390.686118c0-25.901176 12.995765-49.935059 34.304-63.834353l2.966588-1.822117 332.528942-195.343059a73.396706 73.396706 0 0 1 71.183058-1.852236l3.328 1.852236 332.528942 195.343059a76.016941 76.016941 0 0 1 37.195294 62.132705l0.075294 3.523765V579.343059c0 25.901176-12.995765 49.935059-34.304 63.834353l-2.966588 1.822117L549.255529 840.342588zM683.52 158.403765c-29.741176 0-55.100235 19.305412-64.391529 46.170353H432.790588c-9.336471-26.864941-34.740706-46.170353-64.481882-46.170353-37.677176 0-68.336941 30.930824-68.336941 68.939294v143.465412c0 25.012706 20.148706 45.357176 44.950588 45.357176l20.645647 111.585882c5.662118 30.328471 31.924706 52.299294 62.479059 52.299295h195.779765c30.554353 0 56.816941-22.016 62.464-52.284236l20.751058-111.600941c24.696471-0.105412 44.694588-20.449882 44.694589-45.357176v-143.465412c0.060235-38.008471-30.599529-68.939294-68.216471-68.939294zM414.057412 250.127059h223.86447c12.468706 0 22.573176-10.194824 22.573177-22.784 0-12.890353 10.345412-23.386353 23.070117-23.386353s23.085176 10.496 23.085177 23.386353v143.209412a44.995765 44.995765 0 0 0-43.881412 36.939294l-20.811294 111.856941a18.447059 18.447059 0 0 1-18.070588 15.134118H427.971765c-8.839529 0-16.414118-6.369882-18.070589-15.134118l-20.811294-111.856941a45.071059 45.071059 0 0 0-44.122353-36.939294l0.150589-143.209412c0-12.890353 10.390588-23.386353 23.115294-23.386353a23.341176 23.341176 0 0 1 23.190588 23.386353c0 12.589176 10.134588 22.784 22.618353 22.784z m293.195294 119.92847h0.301176-0.301176z m0.240941 45.357177h0.301177-0.301177zM609.039059 369.227294H442.654118c-6.595765 0-12.860235 2.951529-17.076706 8.056471a22.482824 22.482824 0 0 0-4.758588 18.371764l16.474352 90.729412a22.287059 22.287059 0 0 0 21.850353 18.371765h134.008471c10.767059 0 20.013176-7.815529 21.835294-18.477177l15.947294-90.714353c1.144471-6.520471-0.647529-13.221647-4.864-18.281411-4.216471-5.12-10.435765-8.056471-17.031529-8.056471z m-139.760941 44.8h113.242353l-8.041412 45.929412h-96.858353l-8.342588-45.929412z"  horiz-adv-x="1024" />

    
    <glyph glyph-name="huanjing" unicode="&#59321;" d="M571.617882 879.736471L904.146824 684.423529C941.040941 662.723765 963.764706 622.682353 963.764706 579.343059v-390.686118c0-43.339294-22.738824-83.395765-59.617882-105.065412L571.617882-111.736471a117.458824 117.458824 0 0 0-119.235764 0L119.853176 83.591529C82.959059 105.276235 60.235294 145.317647 60.235294 188.656941V579.343059c0 43.339294 22.738824 83.395765 59.617882 105.065412L452.382118 879.736471a117.458824 117.458824 0 0 0 119.235764 0z m-22.362353-39.393883a73.396706 73.396706 0 0 1-71.183058 1.852236l-3.328-1.852236L142.215529 644.999529a76.016941 76.016941 0 0 1-37.195294-62.132705l-0.075294-3.523765v-390.686118c0-25.901176 12.995765-49.935059 34.304-63.834353l2.966588-1.822117 332.528942-195.343059a73.396706 73.396706 0 0 1 71.183058-1.852236l3.328 1.852236 332.528942 195.343059a76.016941 76.016941 0 0 1 37.195294 62.132705l0.075294 3.523765V579.343059c0 25.901176-12.995765 49.935059-34.304 63.834353l-2.966588 1.822117L549.255529 840.342588zM514.846118 281.268706c-28.205176 0-56.395294 7.695059-81.498353 23.100235l23.612235 38.776471a110.215529 110.215529 0 0 1 115.049412-0.406588c33.641412 20.329412 80.067765 111.36 114.115764 198.791529-92.928 10.706824-194.785882 12.107294-228.442352-8.222118a110.441412 110.441412 0 0 1-53.067295-83.983059l-45.056 4.668236c5.089882 49.513412 32.346353 92.611765 74.782118 118.256941 59.512471 35.975529 214.633412 20.224 278.558118 11.776a28.551529 28.551529 0 0 0 20.85647-13.703529 28.762353 28.762353 0 0 0 2.304-24.937412c-22.467765-60.656941-81.167059-205.628235-140.679529-241.603765a155.572706 155.572706 0 0 0-80.534588-22.512941zM331.414588 188.235294H286.117647c0 63.322353 27.196235 129.596235 74.601412 181.835294 48.775529 53.744941 112.368941 84.570353 174.471529 84.570353v-45.462588c-49.392941 0-100.773647-25.404235-140.995764-69.722353-39.303529-43.324235-62.795294-99.84-62.795295-151.220706z"  horiz-adv-x="1024" />

    
    <glyph glyph-name="renlianruyuan" unicode="&#59322;" d="M224 304V128a32 32 0 0 1 28.256-31.776L256 96h160v-64H256a96 96 0 0 0-96 96v176h64z m640 0V128a96 96 0 0 0-96-96h-160v64h160a32 32 0 0 1 31.776 28.256L800 128v176h64zM416 736v-64H256a32 32 0 0 1-31.776-28.256L224 640v-144H160V640a96 96 0 0 0 96 96h160z m352 0a96 96 0 0 0 96-96v-143.968h-64V640a32 32 0 0 1-28.256 31.776L768 672h-160V736h160zM510.624 544a128 128 0 1 0 0-256 128 128 0 0 0 0 256z m0-64a64 64 0 1 1 0-128 64 64 0 0 1 0 128zM510.624 352c115.328 0 210.272-56 222.656-128h-66.624c-15.712 32.192-76.512 64-156.032 64-79.488 0-140.288-31.808-156-64H288c12.352 72 107.328 128 222.624 128z"  horiz-adv-x="1024" />

    
    <glyph glyph-name="weixingoupiao" unicode="&#59323;" d="M736 832a96 96 0 0 0 96-96v-704a96 96 0 0 0-96-96H288a96 96 0 0 0-96 96V736a96 96 0 0 0 96 96h448z m0-64H288a32 32 0 0 1-31.776-28.256L256 736v-704a32 32 0 0 1 28.256-31.776L288 0h448a32 32 0 0 1 31.776 28.256L768 32V736a32 32 0 0 1-28.256 31.776L736 768zM512 192a64 64 0 1 0 0-128 64 64 0 0 0 0 128z"  horiz-adv-x="1024" />

    
    <glyph glyph-name="quannianyouxiao" unicode="&#59324;" d="M800 672a96 96 0 0 0 96-96v-448a96 96 0 0 0-96-96H224a96 96 0 0 0-96 96V576a96 96 0 0 0 96 96h576z m0-64H224a32 32 0 0 1-31.776-28.256L192 576v-448a32 32 0 0 1 28.256-31.776L224 96h576a32 32 0 0 1 31.776 28.256L832 128V576a32 32 0 0 1-28.256 31.776L800 608zM320 736a32 32 0 0 0 32-32v-128a32 32 0 1 0-64 0V704a32 32 0 0 0 32 32zM704 736a32 32 0 0 0 32-32v-128a32 32 0 0 0-64 0V704a32 32 0 0 0 32 32zM288 480m32 0l32 0q32 0 32-32l0-32q0-32-32-32l-32 0q-32 0-32 32l0 32q0 32 32 32ZM288 288m32 0l32 0q32 0 32-32l0-32q0-32-32-32l-32 0q-32 0-32 32l0 32q0 32 32 32ZM480 288m32 0l32 0q32 0 32-32l0-32q0-32-32-32l-32 0q-32 0-32 32l0 32q0 32 32 32ZM480 480m32 0l32 0q32 0 32-32l0-32q0-32-32-32l-32 0q-32 0-32 32l0 32q0 32 32 32ZM672 480m32 0l32 0q32 0 32-32l0-32q0-32-32-32l-32 0q-32 0-32 32l0 32q0 32 32 32Z"  horiz-adv-x="1024" />

    
    <glyph glyph-name="gaozhiliangjingqu" unicode="&#59325;" d="M512 605.376c74.304 0 134.528-62.24 134.528-139.008 0-76.8-60.224-139.008-134.56-139.008a132.384 132.384 0 0 0-95.136 40.704 141.376 141.376 0 0 0-39.424 98.304c0 76.8 60.256 139.008 134.56 139.008z m0-64c-38.528 0-70.592-33.12-70.592-75.008 0-20.352 7.776-39.712 21.408-53.792 13.216-13.664 30.88-21.216 49.152-21.216 38.496 0 70.56 33.12 70.56 75.008 0 41.92-32.064 75.008-70.56 75.008zM512 800c178.336 0 322.88-149.376 322.88-333.632S690.368 132.736 512 132.736c-178.368 0-322.976 149.344-322.976 333.632S333.632 800 512 800z m0-64c-142.56 0-258.976-120.256-258.976-269.632s116.416-269.632 258.944-269.632c142.528 0 258.944 120.256 258.944 269.632S654.496 736 511.968 736zM462.976 100.672l-66.368-118.752a26.816 26.816 0 0 0-23.52-13.856 26.88 26.88 0 0 0-23.296 14.24l-53.12 98.816-109.344-1.92a26.816 26.816 0 0 0-23.584 13.76 28.672 28.672 0 0 0-0.192 27.968l64.384 115.2c58.624-74.624 142.784-123.136 235.04-135.456zM794.208 239.36l66.176-118.432a28.576 28.576 0 0 0-0.096-28.032 26.72 26.72 0 0 0-23.68-13.664l-109.344 1.888-53.12-98.816a26.784 26.784 0 0 0-23.296-14.304 26.752 26.752 0 0 0-23.52 13.92l-66.656 119.296c92.096 13.44 175.68 62.88 233.536 138.144z"  horiz-adv-x="1024" />

    
    <glyph glyph-name="tese" unicode="&#59327;" d="M571.617882 879.736471L904.146824 684.423529C941.040941 662.723765 963.764706 622.682353 963.764706 579.343059v-390.686118c0-43.339294-22.738824-83.395765-59.617882-105.065412L571.617882-111.736471a117.458824 117.458824 0 0 0-119.235764 0L119.853176 83.591529C82.959059 105.276235 60.235294 145.317647 60.235294 188.656941V579.343059c0 43.339294 22.738824 83.395765 59.617882 105.065412L452.382118 879.736471a117.458824 117.458824 0 0 0 119.235764 0z m-22.39247-39.077647a73.200941 73.200941 0 0 1-71.122824 1.837176l-3.312941-1.837176-332.152471-195.46353a76.092235 76.092235 0 0 1-37.150117-62.192941L105.411765 579.463529v-390.957176c0-25.931294 12.980706-49.965176 34.258823-63.879529l2.966588-1.822118 332.137412-195.478588a73.200941 73.200941 0 0 1 71.122824-1.837177l3.312941 1.837177 332.152471 195.463529a76.092235 76.092235 0 0 1 37.150117 62.192941L918.588235 188.536471V579.478588a76.242824 76.242824 0 0 1-34.258823 63.87953l-2.966588 1.822117L549.225412 840.658824zM558.381176 598.588235l2.002824-0.105411c9.035294-0.978824 20.751059-5.496471 32.015059-16.112942 25.163294-23.777882 34.002824-66.032941 21.338353-130.063058l-1.204706-5.872942-1.054118-4.683294 82.627765-0.045176 1.054118 0.060235c6.4 0.271059 13.763765-0.602353 21.353411-3.794823 14.456471-6.068706 24.018824-18.853647 25.042824-36.848942l0.090353-3.674353-0.210824-4.186353-0.361411-4.21647-0.557177-4.909177-0.752941-5.632-0.993882-6.354823-1.234824-7.122824-1.475765-7.875764-1.867294-9.291294-2.258823-10.541177-2.56-11.188706-2.846118-11.821176-3.147294-12.468706-3.433412-13.146353-1.852235-6.821647-3.915294-14.155294-4.23153-14.817883-4.577882-15.540706-4.894118-16.233411a149.278118 149.278118 0 0 0-9.366588-22.256941c-8.914824-17.121882-18.672941-28.175059-33.641412-29.364706l-2.710588-0.090353H492.047059c-26.699294 0-56.997647 14.938353-58.985412 43.595294l-0.105412 3.011765V432.64l7.920941 5.632c0.602353 0.421647 1.340235 0.963765 2.213648 1.641412l4.864 3.870117 4.126117 3.478589a243.952941 243.952941 0 0 1 25.690353 25.645176c21.308235 24.786824 34.288941 50.627765 35.599059 75.941647l0.105412 4.216471v5.195294l0.813176 1.385412 0.090353 1.099294c0.225882 2.816 0.466824 4.848941 0.90353 6.927059l0.512 2.108235 0.527058 1.837176c4.879059 16.022588 18.341647 25.931294 38.776471 26.88l3.282823 0.075294z m-244.254117-165.647059l63.111529-0.030117c5.421176-0.256 11.218824-1.505882 16.971294-4.74353 9.185882-5.165176 15.224471-14.155294 16.052706-25.584941l0.090353-2.68047v-188.55153l-0.060235-2.002823c-0.301176-4.035765-1.581176-8.432941-4.623059-12.815059-4.939294-7.137882-12.905412-11.324235-22.512941-11.971765l-2.650353-0.090353H327.077647c-4.080941 0-8.990118 0.752941-14.351059 3.162353-9.788235 4.442353-16.655059 13.221647-17.498353 23.988706l-0.090353 2.334118-12.739764 187.51247-0.045177 1.596236c0.075294 4.336941 1.114353 9.411765 4.216471 14.772705 4.969412 8.613647 13.703529 14.200471 24.741647 14.998589l2.816 0.105411z m244.058353 127.457883l-1.581177 0.557176h-4.005647c-0.150588-0.015059-0.195765-0.060235-0.225882-0.150588l-0.256-1.054118-0.271059-2.590117-0.331294-4.126118-0.150588-1.189647-0.331294-1.611294-0.015059-1.987765c-1.28-32.105412-15.119059-62.644706-37.541647-91.151059l-3.614118-4.47247-3.568941-4.246588a281.253647 281.253647 0 0 0-29.665882-29.620706l-4.352-3.674353-1.686589-1.370353v-197.692235c0-0.752941 0.722824-1.837176 2.891294-3.237648l1.204706-0.752941 1.475765-0.783059c4.321882-2.183529 10.059294-3.704471 14.034824-4.080941l1.837176-0.105411h159.698824l1.054117 1.249882c0.768 0.963765 1.566118 2.138353 2.409412 3.463529l1.249882 2.138353 1.264941 2.349177c1.234824 2.379294 2.409412 4.909176 3.523765 7.499294l2.108235 5.255529 1.204706 3.388236 4.788706 15.811764 4.442353 15.134118 4.126118 14.45647 3.824941 13.748706 3.493647 13.101177 3.207529 12.423529 2.891295 11.760941 2.620235 11.14353 2.319059 10.465882 2.048 9.86353 1.460706 7.499294 1.746823 9.758117 0.873412 5.541647 0.933647 6.881883 0.391529 3.659294 0.225883 2.951529 0.060235 1.400471-0.015059 1.264941c-0.105412 2.876235-0.572235 3.373176-2.063059 4.005647a13.146353 13.146353 0 0 1-4.005647 0.858353l-2.304-0.015059H562.447059l6.716235 23.913412c20.118588 71.514353 14.908235 110.396235-2.605176 126.945882a25.765647 25.765647 0 0 1-8.372706 5.421177zM320.542118 395.294118l11.730823-173.19153h40.432941v173.176471l-52.163764 0.015059z"  horiz-adv-x="1024" />

    
    <glyph glyph-name="jingqumianmenpiao" unicode="&#59329;" d="M569.408-92.544l-110.848 64-2.784 1.6-57.728 33.344c8.128 6.912 15.456 14.976 21.12 24.768a96 96 0 1 1-166.304 96c-5.664-9.792-8.96-20.16-10.88-30.656l-57.76 33.312-2.784 1.6-110.848 64a64 64 0 0 0-23.424 87.456l320 554.24a64 64 0 0 0 87.424 23.424l110.848-64 2.784-1.6L625.952 761.6c-8.128-6.912-15.456-15.008-21.12-24.8a96 96 0 0 1 166.304-96c5.632 9.792 8.96 20.16 10.88 30.72l57.76-33.344 2.784-1.6 110.848-64a64 64 0 0 0 23.424-87.488l-320-554.24a64 64 0 0 0-87.424-23.392z m352 609.664l-113.632 65.6a160 160 0 0 0-271.552 156.8l-113.632 65.6-320-554.272 113.6-65.6a160 160 0 0 0 271.552-156.8l113.664-65.6 320 554.272z m-376.416-300l-27.712 16a16 16 0 0 0-5.856 21.856l112 193.984a16 16 0 0 0 21.856 5.856l27.712-16a16 16 0 0 0 5.856-21.856l-112-193.984a16 16 0 0 0-21.856-5.856z m-166.304 96l-27.712 16a16 16 0 0 0-5.856 21.856l112 193.984a16 16 0 0 0 21.856 5.856l27.712-16a16 16 0 0 0 5.856-21.856l-112-193.984a16 16 0 0 0-21.856-5.856z"  horiz-adv-x="1024" />

    


  </font>
</defs>
</svg>
