<?xml version="1.0" encoding="UTF-8"?>
<svg width="227px" height="70px" viewBox="0 0 227 70" version="1.1" xmlns="http://www.w3.org/2000/svg" xmlns:xlink="http://www.w3.org/1999/xlink">
    <title>景同舟横版</title>
    <defs>
        <linearGradient x1="-1197.47796%" y1="-1178.17331%" x2="105.054263%" y2="108.815335%" id="linearGradient-1">
            <stop stop-color="#EFEB55" offset="0%"></stop>
            <stop stop-color="#6EBA44" offset="100%"></stop>
        </linearGradient>
        <linearGradient x1="-1101.15749%" y1="-1273.29842%" x2="-7.4020826%" y2="-16.1849732%" id="linearGradient-2">
            <stop stop-color="#EFEB55" offset="0%"></stop>
            <stop stop-color="#6EBA44" offset="100%"></stop>
        </linearGradient>
        <linearGradient x1="-1535.24348%" y1="-1395.27538%" x2="-161.17837%" y2="-130.804536%" id="linearGradient-3">
            <stop stop-color="#EFEB55" offset="0%"></stop>
            <stop stop-color="#6EBA44" offset="100%"></stop>
        </linearGradient>
        <linearGradient x1="-661.046018%" y1="-1210.42412%" x2="216.709601%" y2="345.114511%" id="linearGradient-4">
            <stop stop-color="#EFEB55" offset="0%"></stop>
            <stop stop-color="#6EBA44" offset="100%"></stop>
        </linearGradient>
        <linearGradient x1="-327.19631%" y1="-1233.29157%" x2="127.427307%" y2="313.558823%" id="linearGradient-5">
            <stop stop-color="#EFEB55" offset="0%"></stop>
            <stop stop-color="#6EBA44" offset="100%"></stop>
        </linearGradient>
        <linearGradient x1="-1057.91752%" y1="-1290.27335%" x2="238.288979%" y2="276.620562%" id="linearGradient-6">
            <stop stop-color="#EFEB55" offset="0%"></stop>
            <stop stop-color="#6EBA44" offset="100%"></stop>
        </linearGradient>
        <linearGradient x1="-1066.49527%" y1="-1320.82646%" x2="191.246102%" y2="221.79781%" id="linearGradient-7">
            <stop stop-color="#EFEB55" offset="0%"></stop>
            <stop stop-color="#6EBA44" offset="100%"></stop>
        </linearGradient>
        <linearGradient x1="-1166.93627%" y1="-1408.35267%" x2="143.178357%" y2="144.050381%" id="linearGradient-8">
            <stop stop-color="#EFEB55" offset="0%"></stop>
            <stop stop-color="#6EBA44" offset="100%"></stop>
        </linearGradient>
        <linearGradient x1="-1346.78218%" y1="-1461.33471%" x2="99.037516%" y2="102.944573%" id="linearGradient-9">
            <stop stop-color="#EFEB55" offset="0%"></stop>
            <stop stop-color="#6EBA44" offset="100%"></stop>
        </linearGradient>
        <linearGradient x1="-1246.09904%" y1="-1517.72718%" x2="50.1074587%" y2="49.160469%" id="linearGradient-10">
            <stop stop-color="#EFEB55" offset="0%"></stop>
            <stop stop-color="#6EBA44" offset="100%"></stop>
        </linearGradient>
        <linearGradient x1="-1248.5988%" y1="-1544.76541%" x2="8.67029962%" y2="-2.17189746%" id="linearGradient-11">
            <stop stop-color="#EFEB55" offset="0%"></stop>
            <stop stop-color="#6EBA44" offset="100%"></stop>
        </linearGradient>
        <linearGradient x1="-1116.29058%" y1="-1626.17904%" x2="-35.7578577%" y2="-73.7813072%" id="linearGradient-12">
            <stop stop-color="#EFEB55" offset="0%"></stop>
            <stop stop-color="#6EBA44" offset="100%"></stop>
        </linearGradient>
        <linearGradient x1="-1219.1211%" y1="-1681.40894%" x2="-75.6990119%" y2="-121.427912%" id="linearGradient-13">
            <stop stop-color="#EFEB55" offset="0%"></stop>
            <stop stop-color="#6EBA44" offset="100%"></stop>
        </linearGradient>
        <linearGradient x1="-1602.24711%" y1="-1737.97725%" x2="-156.189363%" y2="-173.136001%" id="linearGradient-14">
            <stop stop-color="#EFEB55" offset="0%"></stop>
            <stop stop-color="#6EBA44" offset="100%"></stop>
        </linearGradient>
        <linearGradient x1="-1570.44597%" y1="-1781.32942%" x2="-188.127185%" y2="-226.303049%" id="linearGradient-15">
            <stop stop-color="#EFEB55" offset="0%"></stop>
            <stop stop-color="#6EBA44" offset="100%"></stop>
        </linearGradient>
        <linearGradient x1="-410.15753%" y1="-84.7478772%" x2="233.497164%" y2="103.730532%" id="linearGradient-16">
            <stop stop-color="#EFEB55" offset="0%"></stop>
            <stop stop-color="#6EBA44" offset="100%"></stop>
        </linearGradient>
        <linearGradient x1="-471.797482%" y1="-242.695414%" x2="171.816504%" y2="120.447883%" id="linearGradient-17">
            <stop stop-color="#EFEB55" offset="0%"></stop>
            <stop stop-color="#6EBA44" offset="100%"></stop>
        </linearGradient>
        <linearGradient x1="-251.681356%" y1="-378.353779%" x2="96.7066916%" y2="85.0019786%" id="linearGradient-18">
            <stop stop-color="#EFEB55" offset="0%"></stop>
            <stop stop-color="#6EBA44" offset="100%"></stop>
        </linearGradient>
        <linearGradient x1="-7.7874096%" y1="-356.921721%" x2="61.8828197%" y2="133.778404%" id="linearGradient-19">
            <stop stop-color="#EFEB55" offset="0%"></stop>
            <stop stop-color="#6EBA44" offset="100%"></stop>
        </linearGradient>
        <linearGradient x1="-437.076244%" y1="-81.3080463%" x2="206.57845%" y2="92.1863795%" id="linearGradient-20">
            <stop stop-color="#EFEB55" offset="0%"></stop>
            <stop stop-color="#6EBA44" offset="100%"></stop>
        </linearGradient>
        <linearGradient x1="-707.660268%" y1="-191.302882%" x2="217.276349%" y2="103.272048%" id="linearGradient-21">
            <stop stop-color="#EFEB55" offset="0%"></stop>
            <stop stop-color="#6EBA44" offset="100%"></stop>
        </linearGradient>
        <linearGradient x1="-620.09543%" y1="12.1301574%" x2="317.23252%" y2="65.1024701%" id="linearGradient-22">
            <stop stop-color="#EFEB55" offset="0%"></stop>
            <stop stop-color="#6EBA44" offset="100%"></stop>
        </linearGradient>
        <linearGradient x1="-114.035337%" y1="35.0295879%" x2="85.4489726%" y2="53.2357141%" id="linearGradient-23">
            <stop stop-color="#EFEB55" offset="0%"></stop>
            <stop stop-color="#6EBA44" offset="100%"></stop>
        </linearGradient>
        <linearGradient x1="-105.641968%" y1="35.7856501%" x2="93.8462517%" y2="54.2196289%" id="linearGradient-24">
            <stop stop-color="#EFEB55" offset="0%"></stop>
            <stop stop-color="#6EBA44" offset="100%"></stop>
        </linearGradient>
        <linearGradient x1="-630.044679%" y1="-2916.14888%" x2="294.21674%" y2="1116.25957%" id="linearGradient-25">
            <stop stop-color="#EFEB55" offset="0%"></stop>
            <stop stop-color="#6EBA44" offset="100%"></stop>
        </linearGradient>
        <linearGradient x1="-207.096139%" y1="-1614.64252%" x2="125.631457%" y2="540.208748%" id="linearGradient-26">
            <stop stop-color="#EFEB55" offset="0%"></stop>
            <stop stop-color="#6EBA44" offset="100%"></stop>
        </linearGradient>
        <linearGradient x1="-635.962124%" y1="-2538.63115%" x2="288.263103%" y2="949.972337%" id="linearGradient-27">
            <stop stop-color="#EFEB55" offset="0%"></stop>
            <stop stop-color="#6EBA44" offset="100%"></stop>
        </linearGradient>
        <linearGradient x1="-699.841572%" y1="-2779.67142%" x2="224.419847%" y2="709.006558%" id="linearGradient-28">
            <stop stop-color="#EFEB55" offset="0%"></stop>
            <stop stop-color="#6EBA44" offset="100%"></stop>
        </linearGradient>
        <linearGradient x1="-689.308605%" y1="13.9330128%" x2="235.442436%" y2="59.0689071%" id="linearGradient-29">
            <stop stop-color="#EFEB55" offset="0%"></stop>
            <stop stop-color="#6EBA44" offset="100%"></stop>
        </linearGradient>
        <linearGradient x1="-97.7704802%" y1="-1324.47468%" x2="71.9884974%" y2="254.846666%" id="linearGradient-30">
            <stop stop-color="#EFEB55" offset="0%"></stop>
            <stop stop-color="#6EBA44" offset="100%"></stop>
        </linearGradient>
        <linearGradient x1="-84.4560718%" y1="-36.563955%" x2="89.4898184%" y2="85.2411745%" id="linearGradient-31">
            <stop stop-color="#EFEB55" offset="0%"></stop>
            <stop stop-color="#6EBA44" offset="100%"></stop>
        </linearGradient>
        <linearGradient x1="-102.969942%" y1="-58.0165049%" x2="80.0057321%" y2="62.8286371%" id="linearGradient-32">
            <stop stop-color="#EFEB55" offset="0%"></stop>
            <stop stop-color="#6EBA44" offset="100%"></stop>
        </linearGradient>
    </defs>
    <g id="页面-1" stroke="none" stroke-width="1" fill="none" fill-rule="evenodd">
        <g id="景同舟横版" fill-rule="nonzero">
            <g id="编组-46" transform="translate(106.000000, 10.000000)">
                <g id="编组-41" transform="translate(3.000000, 0.000000)">
                    <path d="M8.86471587,22.8473923 C9.07586943,22.9484006 9.27443937,23.0742093 9.45629389,23.2222007 C9.70137622,23.367013 10.1154808,23.665156 10.7070589,24.1166297 C10.9843361,24.2750172 11.235279,24.4762195 11.450757,24.7129158 L10.7831189,25.6073449 C10.3436609,26.2036309 9.89575186,26.7488067 9.45629389,27.2428723 C9.00834368,27.6455078 8.5370689,28.0209769 8.04495774,28.3672974 C7.70769426,28.6909051 7.33647446,28.9765342 6.93786172,29.2191347 C6.53072183,29.4438761 6.11018017,29.6430183 5.67864564,29.8154207 C5.22274234,30.0192357 4.7541161,30.1928122 4.2757606,30.3350414 C3.78559595,30.4372619 3.24472461,30.530964 2.65314658,30.6331844 C2.06156856,30.7354049 1.58830613,30.7098498 1.09814148,30.7098498 C0.813954575,30.6957577 0.531345658,30.6587261 0.253030016,30.599111 C0.202323328,30.599111 0.202323328,30.462817 0.253030016,30.1902291 L0.320638933,29.8154207 L1.06433702,29.593943 C1.54646616,29.4937923 2.01671696,29.3424572 2.46722206,29.1424693 C2.86766382,28.9754162 3.24087694,28.7485575 3.57431808,28.4695179 C4.03678395,28.1793179 4.46003887,27.8300021 4.83353417,27.4302765 C5.50031891,26.8608022 6.11935031,26.2368443 6.68432828,25.564753 C7.36886857,24.7725444 7.89283768,24.1507032 8.23933338,23.6992295 C8.39832356,23.3815684 8.60980552,23.0935076 8.86471587,22.8473923 Z M15.6256076,9.9590952 L17.2482216,9.9590952 L17.1806127,10.3253852 C17.1229826,10.6532035 17.0467981,10.9774311 16.9524326,11.2964796 C16.862165,11.6310738 16.7404828,11.9562404 16.5890347,12.2675741 L16.2932457,12.6423824 L22.7076417,12.6423824 L29.13894,12.7105294 L29.13894,13.3834808 L29.215,14.0564322 L1.76577954,14.0564322 L1.76577954,12.6423824 L13.8931291,12.6423824 L13.8931291,9.9590952 L15.6256076,9.9590952 Z M6.38008815,0.41 L7.93509325,0.41 L7.93509325,1.45775978 L22.8682129,1.45775978 L22.8682129,0.41 L25.2429761,0.41 L25.2429761,3.98771631 C25.2845622,5.38071776 25.2365721,6.77497164 25.0993072,8.16171867 C25.0455111,8.47306061 24.9458115,8.77453968 24.8035181,9.05614775 C24.6819661,9.28755702 24.5314316,9.50227274 24.3556091,9.69502566 C24.1620442,9.91756328 23.9226715,10.0948879 23.6541665,10.2146464 C23.460444,10.3191492 23.247683,10.3829059 23.0287841,10.4020505 C22.876664,10.4020505 22.800604,10.274275 22.800604,10.0272422 L22.800604,9.62687868 L6.74348608,9.62687868 L6.44769707,9.92502171 C6.28834484,10.0901467 6.11279039,10.2385577 5.92372796,10.3679771 C5.68385423,10.4305946 5.435992,10.4564396 5.18848098,10.4446424 L4.67296299,10.4446424 L4.67296299,0.41 L6.38008815,0.41 Z M23.1640019,15.0275266 L24.3978646,15.0275266 L24.3978646,17.4041525 C24.4322659,18.403093 24.3842107,19.4031871 24.2541957,20.3941011 C24.155769,20.7742215 24.0315263,21.1470699 23.8823466,21.5100079 C23.7424317,21.8428441 23.5417629,22.1462429 23.2907686,22.4044369 C23.023973,22.5793471 22.7409377,22.7276968 22.4456571,22.8473923 L21.9639436,23.000723 C21.8922356,22.8101838 21.8550246,22.6082223 21.8540791,22.4044369 L21.8540791,21.8762979 L19.411707,21.8081509 L16.8763726,21.8081509 L16.8763726,27.9158237 L16.5805836,28.7676609 C16.4354268,29.2134525 16.2367614,29.6396914 15.9890055,30.0368984 C15.8353092,30.3578147 15.6231694,30.6467717 15.3636231,30.8887356 C15.1826644,31.0723522 14.9709513,31.2223076 14.7382406,31.331691 C14.5208352,31.3912025 14.2957171,31.4170529 14.0706025,31.4083563 L13.6987535,31.4083563 L13.6987535,26.6380679 L13.6226934,21.9359265 L10.7408633,21.8677795 L7.93509325,21.8677795 L7.63930424,22.2340695 C7.47275038,22.4972454 7.25757021,22.7257056 7.00547064,22.9070209 C6.75368238,23.0688858 6.45875589,23.1491497 6.16035917,23.1370169 L5.56878115,23.1370169 L5.56878115,15.2319676 L7.19139516,15.2319676 C8.27313784,15.2319676 8.82246029,15.2915962 8.82246029,15.4193718 C8.82246029,15.5471473 10.9859457,15.6067759 15.3298186,15.6067759 L21.8625302,15.6067759 L21.8625302,15.0871552 L23.1640019,15.0275266 Z M15.4058786,6.37286052 L8.01115329,6.37286052 L7.85903322,6.90099959 C7.82094425,7.20681548 7.74719146,7.5070337 7.63930424,7.79542867 L7.56324421,8.16171867 L22.8682129,8.16171867 L22.8682129,6.37286052 L15.4058786,6.37286052 Z M15.4058786,2.87180956 L7.93509325,2.87180956 L7.93509325,4.89066376 L22.8682129,4.89066376 L22.8682129,2.87180956 L15.4058786,2.87180956 Z M15.4058786,16.9611971 L8.89852033,16.9611971 L8.89852033,18.0771039 C8.92019518,18.6492129 8.86907244,19.2217639 8.74640026,19.7807783 L8.60273131,20.4537297 L21.8625302,20.4537297 L21.8625302,16.9526787 L15.4058786,16.9611971 Z M20.8737498,23.298866 C21.0758832,23.3236475 21.2744334,23.3722506 21.4653278,23.4436783 C21.9075062,23.590227 22.3303519,23.7904603 22.7245439,24.0399644 C23.2957904,24.3389468 23.8388956,24.6896426 24.3471579,25.0877242 C25.149941,25.7141592 25.9173715,26.3853172 26.6458611,27.09806 C27.1451422,27.5530935 27.6033055,28.0519618 28.0149417,28.5887751 C27.5265356,28.9412591 27.0186498,29.26548 26.4937411,29.5598695 C25.5049607,30.1987475 25.0063449,30.530964 24.9809915,30.530964 C24.801093,30.3213671 24.6398965,30.0961764 24.499278,29.8580126 C24.2541957,29.4576491 23.8823466,28.9380284 23.392182,28.2906321 C22.8644726,27.5908382 22.3002707,26.9197815 21.7019591,26.2802963 C20.9667121,25.5306795 20.4934497,25.0877242 20.299074,24.9343935 C20.136304,24.8170314 19.9886803,24.6796789 19.8596161,24.5255116 C19.9887168,24.3036082 20.1356978,24.0927783 20.299074,23.8951521 C20.5441563,23.4947886 20.738532,23.298866 20.8399454,23.298866 L20.8737498,23.298866 Z" id="形状" fill="url(#linearGradient-1)"></path>
                    <path d="M45.7378844,0.476565064 L47.3183915,0.476565064 L47.3183915,1.06733001 L47.3924778,1.57488862 L66.045754,1.57488862 L66.045754,0.41 L69.215,0.41 L69.215,14.0225556 C69.215,23.0476689 69.1656092,27.7626942 69.0668275,28.1676317 C68.9941703,28.489666 68.9006754,28.8065314 68.786946,29.1161839 C68.6607788,29.3986339 68.4882168,29.6574567 68.2765739,29.8816821 C68.0650557,30.124905 67.8075684,30.3229332 67.5192476,30.4641264 C67.2372898,30.5916481 66.9307989,30.6541762 66.6219806,30.6471803 L66.045754,30.6471803 L66.045754,3.0309994 L47.3183915,3.0309994 L47.3183915,15.5951552 C47.3183915,23.9934475 47.2827203,28.4089301 47.211378,28.841603 C47.1571632,29.2197633 47.0461255,29.5873357 46.8821057,29.9316059 C46.7215624,30.2593415 46.504082,30.5552627 46.2400247,30.8052724 C45.9993059,31.0268761 45.7202546,31.2017548 45.4168439,31.3211516 C45.1858554,31.409497 44.9354077,31.4325106 44.6924448,31.3877167 L44.3302453,31.3877167 L44.215,15.9113393 L44.215,0.41 L45.7378844,0.476565064 Z M56.6121024,7.13307147 L65.107328,7.13307147 L65.1814142,7.79040147 L65.1814142,8.51429654 L47.894618,8.51429654 L47.894618,7.85696654 C47.8675069,7.61309071 47.8927774,7.36617317 47.9687043,7.13307147 L56.6121024,7.13307147 Z M51.4260635,11.293388 L52.7184574,11.293388 L52.7184574,12.1254513 L60.1270843,12.1254513 L60.1270843,11.293388 L62.6460175,11.293388 L62.5719312,15.9446218 C62.6414943,17.7079244 62.5809601,19.4740154 62.3908314,21.2282238 C62.2898603,21.5255443 62.145589,21.8059829 61.9627774,22.0602871 C61.7965816,22.2681064 61.6149557,22.4628185 61.4194781,22.6427314 C61.187602,22.8315499 60.8931777,22.9238063 60.5962973,22.900671 L60.0941571,22.9672361 L60.0941571,20.7123445 L52.5291258,20.7123445 L52.3809532,21.2199031 C52.2410125,21.5610491 52.1422308,21.8023474 52.09284,21.9521188 C52.0434491,22.1018902 51.8870448,22.243341 51.7717995,22.3847918 C51.6226303,22.5494128 51.4362086,22.675035 51.2285002,22.7508996 C51.0019327,22.8482271 50.7585076,22.8991343 50.5123329,22.900671 L50.1501334,22.900671 L50.1501334,11.2517848 L51.4260635,11.293388 Z M56.3651482,13.4733938 L52.6855301,13.4733938 L52.6855301,19.2978369 L60.0941571,19.2978369 L60.0941571,13.4733938 L56.3651482,13.4733938 Z" id="形状" fill="url(#linearGradient-2)"></path>
                    <path d="M97.5757748,0.443477322 L99.2437867,0.443477322 L99.2437867,1.02933045 C99.2397266,1.39966011 99.1892909,1.76800872 99.0936656,2.12571274 C99.0273769,2.47423361 98.9296747,2.81599082 98.8017635,3.14677106 C98.7110573,3.38172427 98.5905214,3.60395117 98.443141,3.80794816 C98.2964082,4.00242761 98.1222167,4.17441106 97.9260573,4.31847732 L97.5590947,4.54444924 L104.639805,4.54444924 L104.639805,4.00044276 L106.174376,3.92511879 L107.708947,3.92511879 L107.708947,14.9810043 L115.215,14.9810043 L115.215,16.3703132 L107.708947,16.3703132 L107.708947,22.4129698 C107.770552,24.5622562 107.720444,26.7133043 107.558826,28.8573542 C107.417693,29.1871952 107.247433,29.5037019 107.050082,29.8030886 C106.858424,30.0498615 106.637127,30.2719349 106.391217,30.4642657 C106.126291,30.655074 105.847511,30.8257266 105.557211,30.9747948 C105.318549,31.0868954 105.073478,31.1847089 104.823286,31.2677214 L104.606445,31.2677214 L104.606445,16.4037905 L99.0603054,16.4037905 L93.5892265,16.4791145 L93.514166,19.4837041 C93.5244251,20.6841029 93.4519718,21.8837774 93.2973245,23.0741469 C93.2106514,23.5679193 93.0880014,24.0546465 92.9303619,24.5304104 C92.7709588,25.06762 92.5498527,25.5844088 92.2714972,26.0703672 C91.9879352,26.6143737 91.687693,27.0997948 91.4374913,27.535 C91.1131668,28.0098365 90.744542,28.4526178 90.3366034,28.8573542 C89.9383407,29.2606703 89.5026889,29.6249876 89.0355542,29.9453672 C88.6435714,30.2382937 88.1348278,30.5814363 87.5009833,30.9664255 C87.1779189,31.1548609 86.8335228,31.3037801 86.475156,31.41 C86.3834154,31.41 86.333375,31.2342441 86.333375,30.8994708 L86.333375,30.3136177 L86.9171792,29.9453672 C87.3187311,29.6444883 87.6852251,29.2991679 88.0097269,28.9159395 C88.3948534,28.5441402 88.7387944,28.1316462 89.0355542,27.6856479 C89.2882251,27.3162244 89.5060098,26.9239568 89.6860788,26.5139417 C89.8661729,26.0848726 90.0139287,25.6428469 90.128102,25.1915875 C90.3332277,23.6159117 90.4057645,22.0256999 90.3449435,20.4378078 L90.420004,16.4037905 L84.215,16.4037905 L84.215,15.0144816 L90.420004,15.0144816 L90.420004,4.00044276 L92.0296355,3.92511879 L93.5558663,3.92511879 L93.5558663,4.51097192 L95.9661434,4.51097192 L95.9661434,0.41 L97.5757748,0.443477322 Z M99.1854062,6.00908207 C95.49076,6.00908207 93.6225868,6.00908207 93.6059066,6.00908207 C93.5892265,6.00908207 93.5642063,7.54066955 93.5642063,10.5117819 L93.5642063,14.9810043 L104.656485,14.9810043 L104.656485,6.00908207 L99.1854062,6.00908207 Z M97.175452,6.51961123 C97.175452,6.41917927 97.2254923,6.37733261 97.2505125,6.37733261 C97.3645034,6.41073518 97.4738004,6.45854464 97.5757748,6.51961123 C97.84037,6.69843479 98.0463835,6.95175985 98.167919,7.24774298 C98.6311891,8.18393557 99.2052343,9.06067076 99.8776312,9.85897408 C100.156865,10.2353255 100.47562,10.5804522 100.828398,10.8884017 C101.1203,11.1311123 101.270421,11.2817603 101.270421,11.3319762 C100.845985,11.6510565 100.393798,11.9311636 99.9193315,12.1689093 C99.4573148,12.4371291 98.9812424,12.6801915 98.4931813,12.897041 C98.443141,12.897041 98.3263801,12.7798704 98.1345588,12.5287905 C97.9669588,12.2610716 97.8192188,11.9813384 97.6925356,11.6918575 C97.49638,11.3186946 97.3478689,10.9222124 97.2505125,10.5117819 C97.1386876,9.76121409 97.0912533,9.00240081 97.1087315,8.2436933 C97.1420917,7.18078834 97.1504318,6.6200432 97.175452,6.5112419 L97.175452,6.51961123 Z M97.8009564,17.6508207 C97.9080429,17.6790677 98.0076735,17.7304861 98.0928585,17.8014687 C98.2346395,17.8433153 98.4348009,18.1111339 98.6766626,18.6384017 C98.9185243,19.1656695 99.3105071,19.6008747 99.6941499,20.2118359 C100.079528,20.8290009 100.545105,21.3919058 101.0786,21.8857019 L101.912606,22.7644816 L100.886778,23.2750108 C100.624067,23.4595549 100.34487,23.6192558 100.052772,23.7520626 C99.8493926,23.8442394 99.6541023,23.9534259 99.4689683,24.0784665 C99.1770662,24.2291145 98.9852448,24.2374838 98.8851641,24.1203132 C98.6902943,23.8282128 98.5201196,23.5202633 98.3764205,23.1996868 C98.0879487,22.7303554 97.8899124,22.2108147 97.7926164,21.6680994 C97.6802926,20.9653148 97.630057,20.2539464 97.6424953,19.5422894 C97.6228072,19.0277566 97.6479228,18.5124812 97.7175558,18.0023326 C97.7258959,17.7512527 97.7509161,17.6508207 97.8009564,17.6508207 Z" id="形状" fill="url(#linearGradient-3)"></path>
                </g>
                <g id="编组-42" transform="translate(0.000000, 40.000000)">
                    <g id="编组-45" transform="translate(0.000000, 0.500000)">
                        <path d="M0.727570839,8.70537206 C1.81143192,8.66551711 2.5836543,8.39317497 3.04423798,7.88834562 C3.31438047,7.58014807 3.49995354,7.2112426 3.58387706,6.81558327 C3.62603043,6.67304696 3.64686461,6.52541676 3.64574651,6.37717883 L3.67668123,6.08823046 L3.67668123,0.594890091 C3.70170435,0.259637434 3.99048298,0 4.33834062,0 C4.68619825,0 4.97497688,0.259637434 5,0.594890091 L5,6.51002866 C4.96137699,6.86648842 4.88065034,7.21750427 4.75939659,7.55622105 C4.60682264,8.005612 4.36124055,8.4203184 4.03758635,8.77511822 C3.31577611,9.53236224 2.23306076,9.93866129 0.789440287,9.99401539 L0.669138581,9.99401539 C0.486929771,10.0198431 0.302782332,9.961159 0.172224517,9.8356589 C0.0416667025,9.71015881 -0.0200218385,9.53253042 0.0057606022,9.35633622 C0.0057606022,8.9112893 0.225740865,8.69208708 0.669138581,8.69208708 L0.727570839,8.70537206 Z" id="路径" fill="url(#linearGradient-4)"></path>
                        <path d="M9.07448745,1.29805197 L9.07448745,8.69939224 L9.4127292,8.69939224 C9.57185435,8.68539708 9.72826166,8.75136313 9.83910284,8.87921879 C9.94994401,9.00707445 10.0035982,9.18341498 9.98536656,9.35993131 C10.0076223,9.5351414 9.9543719,9.71177767 9.84167253,9.8365768 C9.72897315,9.96137594 9.57001445,10.0197322 9.4127292,9.99404882 L7.59690507,9.99404882 C7.19635562,9.99404882 7.00349848,9.78267631 7.00349848,9.35993131 C6.98526688,9.18341498 7.03892103,9.00707445 7.1497622,8.87921879 C7.26060338,8.75136313 7.41701069,8.68539708 7.57613584,8.69939224 L7.91437759,8.69939224 L7.91437759,1.29805197 L7.60283913,1.29805197 C7.4397462,1.32230166 7.27581777,1.26055233 7.15946938,1.13104137 C7.04312099,1.0015304 6.98764742,0.819056646 7.00943255,0.637512899 C6.99327542,0.463849081 7.04850822,0.291362042 7.15970439,0.168227498 C7.27090056,0.0450929544 7.42614208,-0.0154915042 7.5820699,0.003395392 L9.42459734,0.003395392 C9.58052516,-0.0154915042 9.73576668,0.0450929544 9.84696285,0.168227498 C9.95815902,0.291362042 10.0133918,0.463849081 9.99723469,0.637512899 C9.99723469,1.08337677 9.80437755,1.29805197 9.42459734,1.29805197 L9.07448745,1.29805197 Z" id="路径" fill="url(#linearGradient-5)"></path>
                        <path d="M19.7155199,8.97080101 C19.844156,9.15904952 19.8677901,9.40537125 19.7775192,9.61697919 C19.6872484,9.82858713 19.4967871,9.97333298 19.2778801,9.99669238 C19.0589732,10.0200518 18.8448779,9.91847588 18.7162418,9.73022735 L13.2217982,2.51065893 L13.2217982,9.15480299 C13.1987034,9.49250296 12.9321789,9.75403572 12.6111282,9.75403572 C12.2900775,9.75403572 12.023553,9.49250296 12.0004582,9.15480299 L12.0004582,0.684021133 C11.993559,0.50488703 12.0648674,0.332294057 12.1939692,0.215652468 L12.2764493,0.15877913 C12.3954822,0.0351105671 12.5633492,-0.0211936083 12.7282535,0.00723977697 C12.8931578,0.0356731622 13.0352801,0.14542681 13.1107673,0.30263522 L19.7155199,8.97080101 Z M19.3824272,0.0115775501 C19.5505945,-0.0144386699 19.720551,0.0446737924 19.8410476,0.171090026 C19.9615443,0.297506259 20.0184789,0.476431318 19.9946833,0.653911719 L19.9946833,6.19069844 C20.011176,6.43185957 19.8985239,6.6625285 19.702777,6.78841223 C19.5070302,6.91429595 19.2609965,6.91429595 19.0652497,6.78841223 C18.8695028,6.6625285 18.7568508,6.43185957 18.7733434,6.19069844 L18.7733434,0.653911719 C18.7497859,0.477096847 18.8063334,0.298878654 18.9260529,0.17262356 C19.0457724,0.0463684664 19.2147651,-0.0132659302 19.3824272,0.0115775501 Z" id="形状" fill="url(#linearGradient-6)"></path>
                        <path d="M26.1744776,9.99978147 C25.0309704,10.0124612 23.9430737,9.47279364 23.2132174,8.5308037 C21.5862995,6.49629795 21.5967745,3.49391661 23.2378433,1.47246436 C23.9683355,0.529111251 25.0572805,-0.0117253217 26.2021817,0.000192920353 C27.5832822,0.000192920353 28.6873418,0.711626098 29.5143604,2.13449245 L29.6220985,2.3057634 L29.6220985,2.33540645 L29.6744285,2.6252496 C29.6744285,3.06440588 29.4866563,3.28398402 29.1111119,3.28398402 C28.8902046,3.29337284 28.6868501,3.15574261 28.6001252,2.93814845 C27.9844786,1.86221556 27.1851641,1.32424911 26.2021817,1.32424911 C25.3589063,1.32330857 24.5590077,1.72408824 24.0197145,2.41774825 C23.4291405,3.12091183 23.1110418,4.03835779 23.1301052,4.98351883 C23.1076838,5.93817281 23.4257612,6.86615587 24.0197145,7.57893246 C24.5470856,8.27248823 25.3388534,8.67429454 26.1744776,8.6724316 C27.6109863,8.6724316 28.4903349,7.83693678 28.8125233,6.16594712 L25.1709736,6.16594712 C24.7954292,6.16594712 24.607657,5.95515211 24.607657,5.5302684 C24.5842765,5.36663491 24.6310133,5.20043613 24.7349021,5.07777702 C24.838791,4.95511791 24.9887831,4.88904349 25.1432695,4.89788336 L29.4527957,4.89788336 C29.607992,4.88821552 29.7590194,4.95376378 29.8640669,5.07638149 C29.9691144,5.19899921 30.017036,5.36567601 29.9945647,5.5302684 L29.9668606,5.61919755 C29.952387,6.77680115 29.5504699,7.89048134 28.8340709,8.75806708 L27.7843934,9.99648779 L26.1744776,9.99978147 Z" id="路径" fill="url(#linearGradient-7)"></path>
                    </g>
                    <g id="编组-44" transform="translate(38.500000, 0.500000)">
                        <path d="M7.35871743,0 C7.78623914,0.0176776047 8,0.229808861 8,0.636393769 C8,1.07833389 7.7755511,1.29930394 7.32665331,1.29930394 L4.8,1.29930394 L4.8,9.36360623 L4.7743487,9.36360623 C4.7743487,9.78786874 4.55631263,10 4.13306613,10 C3.70981964,10 3.45971944,9.77792509 3.45971944,9.33708982 L3.45971944,1.3026185 L0.673346693,1.3026185 C0.224448898,1.3026185 0,1.08164844 0,0.63970832 C0,0.233123412 0.213760855,0.0209921556 0.641282565,0.00331455088 L7.35871743,0 Z" id="路径" fill="url(#linearGradient-8)"></path>
                        <path d="M13.5322856,0.000641225876 C14.7284346,-0.00621865154 15.8713288,0.525341155 16.6776557,1.46355214 C18.4407814,3.44995487 18.4407814,6.55122549 16.6776557,8.53762821 C15.8540861,9.47063462 14.7035353,10 13.4992592,10 C12.2949831,10 11.1444323,9.47063462 10.3208627,8.53762821 C8.55971243,6.55168166 8.55971243,3.45283867 10.3208627,1.46689212 C11.144409,0.512655939 12.3135342,-0.0211357602 13.5322856,0.000641225876 Z M13.5322856,8.65118751 C14.4080925,8.66210781 15.2475749,8.28006957 15.8441326,7.59909404 C16.4780113,6.90332902 16.8253979,5.96851262 16.8097612,5.00059018 C16.8288948,4.0398929 16.4804936,3.11198695 15.8441326,2.42880615 C15.2557428,1.73211471 14.4135338,1.33788483 13.5322856,1.34665287 C12.6422036,1.33443119 11.7900028,1.72851269 11.1921302,2.42880615 C10.5566125,3.11232658 10.2093177,4.04030851 10.229647,5.00059018 C10.2128222,5.96810402 10.5591036,6.90299148 11.1921302,7.59909404 C11.7981073,8.28368872 12.6475996,8.66560581 13.5322856,8.65118751 Z" id="形状" fill="url(#linearGradient-9)"></path>
                        <path d="M27.7155199,8.97076512 C27.9143741,9.26177094 27.8518812,9.66768046 27.5759382,9.87738941 C27.2999952,10.0870984 26.915096,10.0211942 26.7162418,9.73018842 L21.2217982,2.51064888 L21.2217982,9.15476636 C21.1987034,9.49246498 20.9321789,9.7539967 20.6111282,9.7539967 C20.2900775,9.7539967 20.023553,9.49246498 20.0004582,9.15476636 L20.0004582,0.684018397 C19.993559,0.50488501 20.0648674,0.332292728 20.1939692,0.215651606 L20.2764493,0.158778495 C20.3954822,0.0351104267 20.5633492,-0.0211935235 20.7282535,0.00723974801 C20.8931578,0.0356730195 21.0352801,0.145426228 21.1107673,0.30263401 L27.7155199,8.97076512 Z M27.3824272,0.0115775038 C27.5505945,-0.0144386121 27.720551,0.0446736137 27.8410476,0.171089341 C27.9615443,0.297505069 28.0184789,0.476429412 27.9946833,0.653909103 L27.9946833,6.19067367 C28.011176,6.43183384 27.8985239,6.66250184 27.702777,6.78838507 C27.5070302,6.91426829 27.2609965,6.91426829 27.0652497,6.78838507 C26.8695028,6.66250184 26.7568508,6.43183384 26.7733434,6.19067367 L26.7733434,0.653909103 C26.7497859,0.477094939 26.8063334,0.298877458 26.9260529,0.17262287 C27.0457724,0.0463682809 27.2147651,-0.0132658771 27.3824272,0.0115775038 Z" id="形状" fill="url(#linearGradient-10)"></path>
                        <path d="M34.1724118,9.99979561 C33.0285676,10.0120518 31.9403216,9.47255767 31.2092445,8.53081576 C29.5864769,6.49446212 29.5982485,3.49415843 31.2369376,1.47246644 C31.9671413,0.529111999 33.0556561,-0.0117253383 34.2001049,0.000192920626 C35.5806598,0.000192920626 36.6842832,0.711627104 37.5109751,2.13449547 L37.6186707,2.30576666 L37.6186707,2.33540975 L37.67098,2.62525331 C37.67098,3.06441021 37.4832819,3.28398866 37.1078859,3.28398866 C36.886435,3.29287563 36.682511,3.15563198 36.594024,2.9381526 C35.9786207,1.86221819 35.1806476,1.32425098 34.2001049,1.32425098 C33.3571627,1.32331044 32.5575801,1.72409068 32.0184999,2.41775167 C31.4281593,3.12091624 31.1101862,4.0383635 31.1292421,4.98352588 C31.1068296,5.93818121 31.4247813,6.86616558 32.0184999,7.57894318 C32.5456627,8.27249993 33.3371177,8.67430681 34.1724118,8.67244387 C35.608353,8.67244387 36.4873541,7.83694786 36.8094152,6.16595584 L33.1754583,6.16595584 C32.8000622,6.16595584 32.6092872,5.95516053 32.6092872,5.53027622 C32.5869591,5.36628389 32.6344751,5.20021288 32.7387688,5.0777309 C32.8430624,4.95524892 32.9931522,4.88925263 33.1477651,4.89789028 L37.4555888,4.89789028 C37.610536,4.88801389 37.7613509,4.95363824 37.865913,5.07643542 C37.970475,5.1992326 38.017578,5.366042 37.9940667,5.53027622 L37.9694506,5.6192055 C37.9549827,6.77681074 37.5532244,7.8904925 36.8371084,8.75807946 L35.7847686,9.99979561 L34.1724118,9.99979561 Z" id="路径" fill="url(#linearGradient-11)"></path>
                    </g>
                    <g id="编组-43" transform="translate(85.000000, 0.500000)">
                        <path d="M6.80141618,0.228769829 L6.85581682,0.285116814 C6.96852608,0.414947231 7.01938703,0.595114259 6.99328501,0.772076522 C6.96718298,0.949038785 6.86712188,1.10243098 6.72283748,1.18666858 L0.932191507,9.71163602 C0.66930087,9.92032026 0.301931258,9.85576779 0.111648511,9.56745402 C-0.0786342357,9.27914026 -0.019773911,8.87624377 0.243116726,8.66755952 L5.05757342,1.29936255 L1.01077021,1.29936255 C0.851038735,1.32397611 0.690039523,1.26489362 0.575982871,1.13980699 C0.461926218,1.01472037 0.408053543,0.838151551 0.43049671,0.662973069 C0.43049671,0.221035929 0.62392121,3.3098576e-05 1.01077021,3.3098576e-05 L6.35412202,3.3098576e-05 C6.52710572,-0.00191459292 6.69158871,0.0821859135 6.80141618,0.228769829 L6.80141618,0.228769829 Z M6.19696462,8.72722104 C6.51744082,8.72722104 6.77723812,9.01214231 6.77723812,9.36361052 C6.77723812,9.71507872 6.51744082,10 6.19696462,10 L2.42518687,10 C2.10471066,10 1.84491337,9.71507872 1.84491337,9.36361052 C1.84491337,9.01214231 2.10471066,8.72722104 2.42518687,8.72722104 L6.19696462,8.72722104 Z" id="形状" fill="url(#linearGradient-12)"></path>
                        <path d="M15.9966743,9.35707549 C16.0140904,9.53221348 15.9545539,9.70616469 15.8346934,9.83034448 C15.7148329,9.95452427 15.547495,10.015623 15.3794174,9.99657579 C14.9508556,9.99657579 14.7397729,9.78673975 14.7397729,9.35707549 L14.7397729,5.18366992 L10.2622615,5.18366992 L10.2622615,9.35041403 C10.277214,9.52914575 10.2136477,9.70531563 10.0893734,9.82956193 C9.96509905,9.95380823 9.79348521,10.0127655 9.62261703,9.98991432 C9.4530762,10.0158158 9.28173153,9.9569641 9.16025069,9.83110559 C9.03876984,9.70524709 8.98137017,9.52711142 9.0053601,9.35041403 L9.0053601,0.670529826 C9.0053601,0.227542643 9.21004633,0.00438368596 9.62261703,0.00438368596 C9.79381916,-0.0173470484 9.96530476,0.0424615624 10.0894113,0.16718638 C10.2135179,0.291911198 10.2770176,0.468258572 10.2622615,0.647214711 L10.2622615,3.88135422 L14.7397729,3.88135422 L14.7397729,0.673860557 C14.7162903,0.490775752 14.7760863,0.306753042 14.9015005,0.176142707 C15.0269147,0.0455323721 15.2036163,-0.0167411236 15.3794174,0.00771441666 C15.548111,-0.0115127171 15.7160707,0.0500073972 15.8360673,0.174975698 C15.9560639,0.299944 16.0151365,0.474862574 15.9966743,0.650545442 L15.9966743,9.35707549 Z" id="路径" fill="url(#linearGradient-13)"></path>
                        <path d="M22.5141565,0.000390168959 C23.7170606,-0.0121743974 24.8680525,0.520062416 25.6789198,1.46382663 C27.4403601,3.45048663 27.4403601,6.55044287 25.6789198,8.53710286 C24.8552146,9.47044445 23.7044744,10 22.5,10 C21.2955256,10 20.1447854,9.47044445 19.3210802,8.53710286 C17.5596399,6.55044287 17.5596399,3.45048663 19.3210802,1.46382663 C20.1409282,0.515743869 21.3022353,-0.0165012075 22.5141565,0.000390168959 L22.5141565,0.000390168959 Z M22.5141565,8.65404413 C23.3901076,8.66496835 24.2297282,8.28279287 24.8263842,7.6015727 C25.459515,6.90522007 25.8058534,5.96999675 25.7890259,5.00213534 C25.8093585,4.04150869 25.4620066,3.11319339 24.8263842,2.4294274 C24.2272323,1.73946879 23.3837437,1.34701212 22.5,1.34701212 C21.6162563,1.34701212 20.7727677,1.73946879 20.1736158,2.4294274 C19.5379934,3.11319339 19.1906415,4.04150869 19.2109741,5.00213534 C19.1941466,5.96999675 19.540485,6.90522007 20.1736158,7.6015727 C20.7796927,8.28641332 21.6293249,8.66846761 22.5141565,8.65404413 L22.5141565,8.65404413 Z" id="形状" fill="url(#linearGradient-14)"></path>
                        <path d="M35.3413864,0.00649108946 C35.5207292,-0.0193280855 35.7019802,0.0393366632 35.8304844,0.164795429 C35.9589887,0.290254195 36.0197069,0.467824088 35.99433,0.643960265 L35.99433,6.39446345 L35.9638819,6.54055014 C35.9442241,6.88813948 35.8747507,7.23127575 35.7575111,7.55983679 C35.5885886,8.00706827 35.3374601,8.4200755 35.0166062,8.77833256 C34.3264482,9.5353272 33.3205317,9.94149246 31.9988566,9.99682833 L31.7891027,9.99682833 C30.7998395,10.0379515 29.836929,9.67772801 29.1265814,9.00078274 C28.7604899,8.65494085 28.4863528,8.22631018 28.3281634,7.7524056 C28.1911629,7.38747393 28.1013723,7.00711116 28.0608963,6.62023379 L28,6.384503 L28,0.643960265 C28.0246295,0.308818011 28.3088659,0.0492660792 28.651252,0.0492660792 C28.9936381,0.0492660792 29.2778745,0.308818011 29.302504,0.643960265 L29.302504,6.1354916 L29.3329522,6.1354916 L29.3329522,6.42434482 C29.3523107,6.59080311 29.3816824,6.75599231 29.4209135,6.91904746 C29.5120909,7.37154033 29.7395507,7.78676333 30.0738571,8.11098201 C30.5904436,8.56582103 31.277607,8.78740044 31.9684084,8.72188997 C32.7524529,8.73969676 33.5104046,8.4450344 34.0693305,7.90513259 C34.3349952,7.596456 34.5186387,7.22802127 34.6038647,6.83272351 C34.6425366,6.68974417 34.6618736,6.54239323 34.6613778,6.39446345 L34.6613778,6.10561023 L34.6850597,6.10561023 L34.6850597,0.643960265 C34.65942,0.467159643 34.7205499,0.288880756 34.8498867,0.163260025 C34.9792236,0.0376392945 35.1615077,-0.020502119 35.3413864,0.00649108946 Z" id="路径" fill="url(#linearGradient-15)"></path>
                    </g>
                </g>
            </g>
            <g id="编组-38">
                <path d="M53.436673,20 L40.563327,20 C39.1477921,19.9976047 38.0012483,18.8982594 38,17.5421949 L38,16.455632 C38.0012507,15.0999205 39.148159,14.0011982 40.563327,14 L53.436673,14 C54.851841,14.0011982 55.9987493,15.0999205 56,16.455632 L56,17.5421949 C55.9987517,18.8982594 54.8522079,19.9976047 53.436673,20 L53.436673,20 Z M40.563327,15.3364723 C39.9161369,15.3376681 39.3917964,15.839979 39.3905482,16.4599783 L39.3905482,17.5465411 C39.3917964,18.1665404 39.9161369,18.6688513 40.563327,18.6700471 L53.436673,18.6700471 C54.0838631,18.6688513 54.6082036,18.1665404 54.6094518,17.5465411 L54.6094518,16.4599783 C54.6082036,15.839979 54.0838631,15.3376681 53.436673,15.3364723 L40.563327,15.3364723 Z" id="形状" fill="url(#linearGradient-16)"></path>
                <path d="M55.305904,43.9600007 C54.9218295,43.9587472 54.6107847,43.645574 54.6095397,43.2588713 L54.6095397,35.5829883 C54.6095409,34.930519 54.0848687,34.4012347 53.4368351,34.3999751 L40.5643033,34.3999751 C39.9162697,34.4012347 39.3915975,34.930519 39.3915987,35.5829883 L39.3915987,43.2588713 C39.4063334,43.5184939 39.27714,43.7650025 39.0559615,43.8992868 C38.834783,44.0335711 38.5579541,44.0335711 38.3367756,43.8992868 C38.1155971,43.7650025 37.9864037,43.5184939 38.0011384,43.2588713 L38.0011384,35.5829883 C38.0023866,34.1578554 39.148858,33.0025173 40.5643033,33 L53.4368351,33 C54.8522805,33.0025173 55.9987518,34.1578554 56,35.5829883 L56,43.2588713 C56,43.6452042 55.6896093,43.9587423 55.305904,43.9600007 L55.305904,43.9600007 Z" id="路径" fill="url(#linearGradient-17)"></path>
                <path d="M55.3098866,69 C54.9280158,68.9987511 54.6187557,68.6867275 54.6175178,68.3014444 L54.6175178,48.5735061 C54.617519,47.923432 54.0958572,47.3960907 53.4515418,47.3948358 L40.6528692,47.3948358 C40.2864266,47.3737091 40,47.0677381 40,46.6974179 C40,46.3270976 40.2864266,46.0211267 40.6528692,46 L53.4515418,46 C54.8588658,46.0025081 55.998759,47.1536049 56,48.5735061 L56,68.3014444 C56,68.6863591 55.6913902,68.9987462 55.3098866,69 L55.3098866,69 Z" id="路径" fill="url(#linearGradient-18)"></path>
                <path d="M36.6793009,65 C36.3566151,65.002885 36.0773122,64.7656414 36.0134064,64.4343538 C35.9495006,64.1030661 36.1189565,63.7708623 36.4174112,63.6423366 C37.4165534,63.2043893 37.6476326,61.1875264 37.6498333,60.5144704 L37.6498333,43.7480009 C37.6355373,43.4859709 37.7608842,43.2371765 37.9754776,43.1016471 C38.190071,42.9661176 38.4586579,42.9661176 38.6732512,43.1016471 C38.8878446,43.2371765 39.0131915,43.4859709 38.9988955,43.7480009 L38.9988955,60.5167754 C38.9988955,60.8763532 38.9416759,64.0687591 36.9389898,64.9446538 C36.8570173,64.9817259 36.7685871,65.0005635 36.6793009,65 Z" id="路径" fill="url(#linearGradient-19)"></path>
                <path d="M54.1852552,29 L39.8147448,29 C38.8124889,29 38,28.1402492 38,27.0796928 L38,25.9203072 C38,24.8597508 38.8124889,24 39.8147448,24 L54.1852552,24 C55.1875111,24 56,24.8597508 56,25.9203072 L56,27.0796928 C56,28.1402492 55.1875111,29 54.1852552,29 Z M39.8147448,25.4714354 C39.5804675,25.4714354 39.3905482,25.6724022 39.3905482,25.9203072 L39.3905482,27.0796928 C39.3905482,27.3275978 39.5804675,27.5285646 39.8147448,27.5285646 L54.1852552,27.5285646 C54.2977591,27.5285646 54.4056552,27.4812729 54.4852075,27.3970931 C54.5647598,27.3129133 54.6094518,27.198741 54.6094518,27.0796928 L54.6094518,25.9203072 C54.6094518,25.801259 54.5647598,25.6870867 54.4852075,25.6029069 C54.4056552,25.5187271 54.2977591,25.4714354 54.1852552,25.4714354 L39.8147448,25.4714354 Z" id="形状" fill="url(#linearGradient-20)"></path>
                <path d="M50.3373778,44 L42.660268,44 C41.1915805,43.9988279 40.001298,42.9240078 40,41.5977891 L40,41.4022109 C40.001298,40.0759922 41.1915805,39.0011721 42.660268,39 L50.3373778,39 C51.8064477,39.0011698 52.997405,40.0756484 53,41.4022109 L53,41.599915 C52.9961097,42.925647 51.8055309,43.9988335 50.3373778,44 L50.3373778,44 Z M42.660268,40.3031463 C41.9886022,40.304316 41.444432,40.7956994 41.4431365,41.4022109 L41.4431365,41.599915 C41.444432,42.2064264 41.9886022,42.6978098 42.660268,42.6989796 L50.3373778,42.6989796 C51.0099628,42.6989796 51.555565,42.2072553 51.5568635,41.599915 L51.5568635,41.4043367 C51.555565,40.7969964 51.0099628,40.305271 50.3373778,40.3052721 L42.660268,40.3031463 Z" id="形状" fill="url(#linearGradient-21)"></path>
                <path d="M52.3239126,18 L41.6760874,18 C41.3026946,18 41,17.7761424 41,17.5 C41,17.2238576 41.3026946,17 41.6760874,17 L52.3239126,17 C52.6973054,17 53,17.2238576 53,17.5 C53,17.7761424 52.6973054,18 52.3239126,18 L52.3239126,18 Z" id="路径" fill="url(#linearGradient-22)"></path>
                <path d="M89.1574816,22.9989062 L38.7351411,22.9989062 C38.4776159,23.0130637 38.2330989,22.8889314 38.0998995,22.6764175 C37.9667002,22.4639036 37.9667002,22.1979195 38.0998995,21.9854056 C38.2330989,21.7728917 38.4776159,21.6487594 38.7351411,21.6629169 L89.1574816,21.6629169 C89.3840174,21.6629169 94.6101985,21.6018929 94.6101985,17.7072554 C94.5954828,17.4594989 94.7245094,17.2242569 94.9454022,17.0961101 C95.1662951,16.9679633 95.4427665,16.9679633 95.6636594,17.0961101 C95.8845522,17.2242569 96.0135788,17.4594989 95.998863,17.7072554 C95.998863,21.8917568 91.5225154,22.9989062 89.1574816,22.9989062 Z" id="路径" fill="url(#linearGradient-23)"></path>
                <path d="M57.2648445,53.9988925 L6.84151557,53.9988925 C4.47416995,53.9988925 0,52.877887 0,48.6388092 C0.0210336266,48.2802582 0.325656809,48 0.694345868,48 C1.06303493,48 1.36765811,48.2802582 1.38869174,48.6388092 C1.38869174,52.5998423 6.61724072,52.6461831 6.84151557,52.6461831 L57.2648445,52.6461831 C57.5223747,52.6318484 57.7668965,52.7575342 57.9000985,52.9727078 C58.0333005,53.1878813 58.0333005,53.4571943 57.9000985,53.6723678 C57.7668965,53.8875414 57.5223747,54.0132272 57.2648445,53.9988925 L57.2648445,53.9988925 Z" id="路径" fill="url(#linearGradient-24)"></path>
                <path d="M46.5008143,24 C46.2253084,24 46.0017148,23.6465668 46.0008174,23.2096524 L46.0008174,21.8381669 C45.9902377,21.5445511 46.0829999,21.2657664 46.2418084,21.1138999 C46.400617,20.9620334 46.599383,20.9620334 46.7581916,21.1138999 C46.9170001,21.2657664 47.0097623,21.5445511 46.9991826,21.8381669 L46.9991826,23.2096524 C46.9991826,23.6461493 46.7760555,24 46.5008143,24 L46.5008143,24 Z" id="路径" fill="url(#linearGradient-25)"></path>
                <path d="M46.5008143,33 C46.2250448,32.9987374 46.0017113,32.6832861 46.0008174,32.2937705 L46.0008174,28.7465198 C45.9902377,28.4850086 46.0829999,28.2367069 46.2418084,28.1014458 C46.400617,27.9661847 46.599383,27.9661847 46.7581916,28.1014458 C46.9170001,28.2367069 47.0097623,28.4850086 46.9991826,28.7465198 L46.9991826,32.2937705 C46.9991841,32.6829137 46.7763188,32.9987324 46.5008143,33 L46.5008143,33 Z" id="路径" fill="url(#linearGradient-26)"></path>
                <path d="M39.5008143,33 C39.2246737,33 39.0008174,32.6928556 39.0008174,32.3139738 L39.0008174,30.7251639 C38.9902377,30.4711338 39.0829999,30.2299353 39.2418084,30.0985437 C39.400617,29.9671521 39.599383,29.9671521 39.7581916,30.0985437 C39.9170001,30.2299353 40.0097623,30.4711338 39.9991826,30.7251639 L39.9991826,32.3139738 C39.9991841,32.6919846 39.7763188,32.9987687 39.5008143,33 L39.5008143,33 Z" id="路径" fill="url(#linearGradient-27)"></path>
                <path d="M54.5008143,33 C54.2250448,32.9987735 54.0017113,32.6923464 54.0008174,32.3139738 L54.0008174,30.7251639 C53.9902377,30.4711338 54.0829999,30.2299353 54.2418084,30.0985437 C54.400617,29.9671521 54.599383,29.9671521 54.7581916,30.0985437 C54.9170001,30.2299353 55.0097623,30.4711338 54.9991826,30.7251639 L54.9991826,32.3139738 C54.9991841,32.6919846 54.7763188,32.9987687 54.5008143,33 Z" id="路径" fill="url(#linearGradient-28)"></path>
                <path d="M52.2361605,37.9991826 L40.6813895,37.9991826 C40.298939,37.984061 40,37.7650598 40,37.5 C40,37.2349402 40.298939,37.015939 40.6813895,37.0008174 L52.2361605,37.0008174 C52.5037389,36.9902377 52.7578014,37.0829999 52.8962006,37.2418084 C53.0345998,37.400617 53.0345998,37.599383 52.8962006,37.7581916 C52.7578014,37.9170001 52.5037389,38.0097623 52.2361605,37.9991826 L52.2361605,37.9991826 Z" id="路径" fill="url(#linearGradient-29)"></path>
                <path d="M46.5008143,57 C46.2253084,57 46.0017148,56.6769954 46.0008174,56.277697 L46.0008174,50.7660054 C45.9902377,50.4976683 46.0829999,50.2428854 46.2418084,50.1040937 C46.400617,49.9653021 46.599383,49.9653021 46.7581916,50.1040937 C46.9170001,50.2428854 47.0097623,50.4976683 46.9991826,50.7660054 L46.9991826,56.277697 C46.9991826,56.6766139 46.7760555,57 46.5008143,57 L46.5008143,57 Z" id="路径" fill="url(#linearGradient-30)"></path>
                <path d="M17.2984904,51 C14.7306364,46.1412871 13.3900427,40.7248362 13.3942269,35.225459 C13.3942269,16.5734548 28.5206806,1.39867139 47.1132805,1.39867139 C60.0422881,1.41627699 71.8265578,8.83742123 77.462026,20.5107949 L79,20.5107949 C73.2652271,8.02497127 60.8215516,0.019562953 47.1178442,-5.68434189e-14 C27.7539755,-5.68434189e-14 12,15.7951434 12,35.2300373 C11.9958489,40.7069424 13.272938,46.1083967 15.7285703,51 L17.2984904,51 Z" id="路径" fill="url(#linearGradient-31)"></path>
                <path d="M80.5532548,25 L79.1155376,25 C80.1125707,28.2293116 80.6186174,31.5922925 80.6164511,34.9744614 C80.6164511,53.5192677 65.6524558,68.6049863 47.2623151,68.6049863 C36.8361259,68.6033648 27.0120134,63.6800805 20.7153298,55.301153 L19,55.301153 C25.5095733,64.5200582 36.0386103,69.9960676 47.2623151,70 C66.4175832,70 82,54.2975625 82,34.9744614 C82,31.5964994 81.5125998,28.2365056 80.5532548,25 Z" id="路径" fill="url(#linearGradient-32)"></path>
            </g>
        </g>
    </g>
</svg>