<svg id="图层_1" data-name="图层 1" xmlns="http://www.w3.org/2000/svg" xmlns:xlink="http://www.w3.org/1999/xlink" viewBox="0 0 421.82 439.84"><defs><style>.cls-1{fill:url(#未命名的渐变_30);}.cls-2{fill:url(#未命名的渐变_30-2);}.cls-3{fill:url(#未命名的渐变_30-3);}.cls-4{fill:url(#未命名的渐变_30-4);}.cls-5{fill:url(#未命名的渐变_30-5);}.cls-6{fill:url(#未命名的渐变_30-6);}.cls-7{fill:url(#未命名的渐变_30-7);}.cls-8{fill:url(#未命名的渐变_30-8);}.cls-9{fill:url(#未命名的渐变_30-9);}.cls-10{fill:url(#未命名的渐变_30-10);}.cls-11{fill:url(#未命名的渐变_30-11);}.cls-12{fill:url(#未命名的渐变_30-12);}.cls-13{fill:url(#未命名的渐变_30-13);}.cls-14{fill:url(#未命名的渐变_30-14);}.cls-15{fill:url(#未命名的渐变_30-15);}.cls-16{fill:url(#未命名的渐变_30-16);}.cls-17{fill:url(#未命名的渐变_30-17);}.cls-18{fill:url(#未命名的渐变_30-18);}.cls-19{fill:url(#未命名的渐变_30-19);}.cls-20{fill:url(#未命名的渐变_30-20);}.cls-21{fill:url(#未命名的渐变_30-21);}.cls-22{fill:url(#未命名的渐变_30-22);}.cls-23{fill:url(#未命名的渐变_30-23);}.cls-24{fill:url(#未命名的渐变_30-24);}.cls-25{fill:url(#未命名的渐变_30-25);}.cls-26{fill:url(#未命名的渐变_30-26);}.cls-27{fill:url(#未命名的渐变_30-27);}.cls-28{fill:url(#未命名的渐变_30-28);}.cls-29{fill:url(#未命名的渐变_30-29);}.cls-30{fill:url(#未命名的渐变_30-30);}.cls-31{fill:url(#未命名的渐变_30-31);}.cls-32{fill:url(#未命名的渐变_30-32);}</style><linearGradient id="未命名的渐变_30" x1="-168.51" y1="53.95" x2="342.23" y2="522.31" gradientUnits="userSpaceOnUse"><stop offset="0" stop-color="#efeb55"/><stop offset="1" stop-color="#6eba44"/></linearGradient><linearGradient id="未命名的渐变_30-2" x1="-160.17" y1="44.85" x2="350.58" y2="513.21" xlink:href="#未命名的渐变_30"/><linearGradient id="未命名的渐变_30-3" x1="-149.14" y1="32.82" x2="361.61" y2="501.18" xlink:href="#未命名的渐变_30"/><linearGradient id="未命名的渐变_30-4" x1="-134.69" y1="17.07" x2="376.05" y2="485.43" xlink:href="#未命名的渐变_30"/><linearGradient id="未命名的渐变_30-5" x1="-113.04" y1="-6.54" x2="397.7" y2="461.82" xlink:href="#未命名的渐变_30"/><linearGradient id="未命名的渐变_30-6" x1="-101.52" y1="-19.09" x2="409.22" y2="449.26" xlink:href="#未命名的渐变_30"/><linearGradient id="未命名的渐变_30-7" x1="-86.79" y1="-35.17" x2="423.96" y2="433.19" xlink:href="#未命名的渐变_30"/><linearGradient id="未命名的渐变_30-8" x1="-72.34" y1="-50.92" x2="438.41" y2="417.43" xlink:href="#未命名的渐变_30"/><linearGradient id="未命名的渐变_30-9" x1="-52.73" y1="-72.31" x2="458.02" y2="396.05" xlink:href="#未命名的渐变_30"/><linearGradient id="未命名的渐变_30-10" x1="-39.82" y1="-86.38" x2="470.92" y2="381.98" xlink:href="#未命名的渐变_30"/><linearGradient id="未命名的渐变_30-11" x1="-25.74" y1="-101.73" x2="485" y2="366.62" xlink:href="#未命名的渐变_30"/><linearGradient id="未命名的渐变_30-12" x1="-10.66" y1="-118.18" x2="500.08" y2="350.18" xlink:href="#未命名的渐变_30"/><linearGradient id="未命名的渐变_30-13" x1="-161.61" y1="46.42" x2="349.13" y2="514.78" xlink:href="#未命名的渐变_30"/><linearGradient id="未命名的渐变_30-14" x1="-119.37" y1="0.36" x2="391.38" y2="468.72" xlink:href="#未命名的渐变_30"/><linearGradient id="未命名的渐变_30-15" x1="-80.43" y1="-42.1" x2="430.31" y2="426.26" xlink:href="#未命名的渐变_30"/><linearGradient id="未命名的渐变_30-16" x1="52.61" y1="-187.18" x2="563.35" y2="281.17" xlink:href="#未命名的渐变_30"/><linearGradient id="未命名的渐变_30-17" x1="3.67" y1="-133.8" x2="514.41" y2="334.55" xlink:href="#未命名的渐变_30"/><linearGradient id="未命名的渐变_30-18" x1="-20.32" y1="-107.65" x2="490.42" y2="360.71" xlink:href="#未命名的渐变_30"/><linearGradient id="未命名的渐变_30-19" x1="-46.24" y1="-79.38" x2="464.5" y2="388.97" xlink:href="#未命名的渐变_30"/><linearGradient id="未命名的渐变_30-20" x1="31.25" y1="-163.89" x2="541.99" y2="304.47" xlink:href="#未命名的渐变_30"/><linearGradient id="未命名的渐变_30-21" x1="-0.63" y1="-129.13" x2="510.12" y2="339.23" xlink:href="#未命名的渐变_30"/><linearGradient id="未命名的渐变_30-22" x1="52.61" y1="-187.18" x2="563.36" y2="281.18" xlink:href="#未命名的渐变_30"/><linearGradient id="未命名的渐变_30-23" x1="85.93" y1="-223.51" x2="596.67" y2="244.85" xlink:href="#未命名的渐变_30"/><linearGradient id="未命名的渐变_30-24" x1="-58.37" y1="-66.15" x2="452.37" y2="402.21" xlink:href="#未命名的渐变_30"/><linearGradient id="未命名的渐变_30-25" x1="41.95" y1="-175.57" x2="552.7" y2="292.8" xlink:href="#未命名的渐变_30"/><linearGradient id="未命名的渐变_30-26" x1="23.1" y1="-155" x2="533.84" y2="313.36" xlink:href="#未命名的渐变_30"/><linearGradient id="未命名的渐变_30-27" x1="6.2" y1="-136.56" x2="516.93" y2="331.79" xlink:href="#未命名的渐变_30"/><linearGradient id="未命名的渐变_30-28" x1="35.86" y1="-168.92" x2="546.61" y2="299.44" xlink:href="#未命名的渐变_30"/><linearGradient id="未命名的渐变_30-29" x1="8.73" y1="-139.32" x2="519.47" y2="329.04" xlink:href="#未命名的渐变_30"/><linearGradient id="未命名的渐变_30-30" x1="-26.84" y1="-100.53" x2="483.9" y2="367.82" xlink:href="#未命名的渐变_30"/><linearGradient id="未命名的渐变_30-31" x1="17.91" y1="-149.33" x2="528.65" y2="319.02" xlink:href="#未命名的渐变_30"/><linearGradient id="未命名的渐变_30-32" x1="7.15" y1="-137.6" x2="517.89" y2="330.76" xlink:href="#未命名的渐变_30"/></defs><title>景同舟</title><path class="cls-1" d="M240.07,444.61q4.73-.18,6.74-2.46a7.25,7.25,0,0,0,1.57-3.23,4.68,4.68,0,0,0,.18-1.32l.09-.87V420.19a1.93,1.93,0,0,1,3.85,0V438a14.14,14.14,0,0,1-.7,3.15,10.5,10.5,0,0,1-2.1,3.67q-3.15,3.42-9.45,3.67h-.35a1.7,1.7,0,0,1-1.93-1.92c0-1.34.64-2,1.93-2Z" transform="translate(-212.1 -72.12)"/><path class="cls-2" d="M265.53,422.2v22.41h1.14a1.8,1.8,0,0,1,1.93,2,1.7,1.7,0,0,1-1.93,1.92h-6.12c-1.35,0-2-.64-2-1.92a1.8,1.8,0,0,1,1.93-2h1.14V422.2h-1.05a1.78,1.78,0,0,1-2-2,1.75,1.75,0,0,1,1.93-1.92h6.21a1.75,1.75,0,0,1,1.93,1.92c0,1.35-.65,2-1.93,2Z" transform="translate(-212.1 -72.12)"/><path class="cls-3" d="M299.13,445.31a1.94,1.94,0,1,1-3.15,2.27L278.66,426v19.86a1.93,1.93,0,0,1-3.85,0V420.54a1.75,1.75,0,0,1,.61-1.4l.26-.17a1.65,1.65,0,0,1,2.63.43Zm-1.05-26.78a1.7,1.7,0,0,1,1.93,1.92V437a1.93,1.93,0,1,1-3.85,0V420.45A1.7,1.7,0,0,1,298.08,418.53Z" transform="translate(-212.1 -72.12)"/><path class="cls-4" d="M319.26,448.45a12.33,12.33,0,0,1-9.62-4.46,16.41,16.41,0,0,1,.08-21.43,12.35,12.35,0,0,1,9.63-4.47q6.73,0,10.76,6.48l.35.52v.09l.17.88q0,2-1.83,2a1.73,1.73,0,0,1-1.66-1.05q-3-4.9-7.79-4.9a9.21,9.21,0,0,0-7.09,3.32,11.29,11.29,0,0,0-2.89,7.79,11.41,11.41,0,0,0,2.89,7.88,9,9,0,0,0,7,3.32q7,0,8.57-7.61H316c-1.22,0-1.83-.64-1.83-1.93a1.67,1.67,0,0,1,1.74-1.92h14a1.68,1.68,0,0,1,1.76,1.92l-.09.27a14.69,14.69,0,0,1-3.68,9.53l-3.41,3.76Z" transform="translate(-212.1 -72.12)"/><path class="cls-5" d="M371.85,418.36q2,.08,2,1.92,0,2-2.1,2h-7.88v24.33h-.08c0,1.28-.68,1.92-2,1.92s-2.1-.67-2.1-2V422.29H351q-2.1,0-2.1-2,0-1.84,2-1.92Z" transform="translate(-212.1 -72.12)"/><path class="cls-6" d="M392,418.44A13.44,13.44,0,0,1,402,422.82,15.44,15.44,0,0,1,402,444a13.85,13.85,0,0,1-20.21,0,15.44,15.44,0,0,1,0-21.17A13.54,13.54,0,0,1,392,418.44Zm0,25.9a9.88,9.88,0,0,0,7.35-3.15,10.92,10.92,0,0,0,3.07-7.78,10.63,10.63,0,0,0-3.07-7.7,9.75,9.75,0,0,0-7.35-3.24,9.87,9.87,0,0,0-7.44,3.24,10.62,10.62,0,0,0-3.06,7.7,10.91,10.91,0,0,0,3.06,7.78A10,10,0,0,0,392,444.34Z" transform="translate(-212.1 -72.12)"/><path class="cls-7" d="M435.63,445.31a1.94,1.94,0,1,1-3.15,2.27L415.16,426v19.86a1.93,1.93,0,0,1-3.85,0V420.54a1.75,1.75,0,0,1,.61-1.4l.26-.17a1.65,1.65,0,0,1,2.63.43Zm-1.05-26.78a1.7,1.7,0,0,1,1.93,1.92V437a1.93,1.93,0,1,1-3.85,0V420.45A1.7,1.7,0,0,1,434.58,418.53Z" transform="translate(-212.1 -72.12)"/><path class="cls-8" d="M455.76,448.45a12.36,12.36,0,0,1-9.63-4.46,16.43,16.43,0,0,1,.09-21.43,12.35,12.35,0,0,1,9.63-4.47q6.73,0,10.76,6.48l.35.52v.09l.17.88q0,2-1.83,2a1.75,1.75,0,0,1-1.67-1.05q-3-4.9-7.78-4.9a9.21,9.21,0,0,0-7.09,3.32,11.29,11.29,0,0,0-2.89,7.79,11.41,11.41,0,0,0,2.89,7.88,9,9,0,0,0,7,3.32q7,0,8.57-7.61H452.52c-1.22,0-1.84-.64-1.84-1.93a1.68,1.68,0,0,1,1.75-1.92h14a1.67,1.67,0,0,1,1.75,1.92l-.08.27a14.69,14.69,0,0,1-3.68,9.53L461,448.45Z" transform="translate(-212.1 -72.12)"/><path class="cls-9" d="M509.48,419l.18.17a1.73,1.73,0,0,1-.44,2.72l-19.16,25.72a1.94,1.94,0,1,1-2.28-3.15l15.93-22.23H490.32a1.7,1.7,0,0,1-1.92-1.92q0-2,1.92-2H508A1.89,1.89,0,0,1,509.48,419Zm-2,25.64a1.92,1.92,0,0,1,0,3.84H495a1.92,1.92,0,1,1,0-3.84Z" transform="translate(-212.1 -72.12)"/><path class="cls-10" d="M538,446.53a1.75,1.75,0,0,1-1.93,1.92c-1.34,0-2-.63-2-1.92V434h-14v12.51a1.78,1.78,0,0,1-2,1.92,1.7,1.7,0,0,1-1.93-1.92V420.45c0-1.33.64-2,1.93-2a1.79,1.79,0,0,1,2,1.93v9.71h14v-9.63a1.78,1.78,0,0,1,2-2,1.75,1.75,0,0,1,1.93,1.93Z" transform="translate(-212.1 -72.12)"/><path class="cls-11" d="M557.87,418.44a13.44,13.44,0,0,1,10.06,4.38,15.44,15.44,0,0,1,0,21.17,13.85,13.85,0,0,1-20.21,0,15.44,15.44,0,0,1,0-21.17A13.54,13.54,0,0,1,557.87,418.44Zm0,25.9a9.88,9.88,0,0,0,7.35-3.15,10.91,10.91,0,0,0,3.06-7.78,10.62,10.62,0,0,0-3.06-7.7,10.06,10.06,0,0,0-14.79,0,10.62,10.62,0,0,0-3.06,7.7,10.91,10.91,0,0,0,3.06,7.78A10,10,0,0,0,557.87,444.34Z" transform="translate(-212.1 -72.12)"/><path class="cls-12" d="M597.94,418.36a1.7,1.7,0,0,1,1.93,1.92V437.6l-.09.44a11.16,11.16,0,0,1-.61,3.07,11.74,11.74,0,0,1-2.19,3.67q-3.06,3.42-8.92,3.67h-.62a10.65,10.65,0,0,1-7.87-3,9.19,9.19,0,0,1-2.36-3.76,14,14,0,0,1-.79-3.41l-.18-.71V420.28a1.93,1.93,0,0,1,3.85,0v16.54h.09v.87a12.8,12.8,0,0,0,.26,1.49,6.94,6.94,0,0,0,1.93,3.59,7.33,7.33,0,0,0,5.6,1.84,8.57,8.57,0,0,0,6.21-2.46,7.37,7.37,0,0,0,1.58-3.23,5.08,5.08,0,0,0,.17-1.32v-.87H596V420.28A1.7,1.7,0,0,1,597.94,418.36Z" transform="translate(-212.1 -72.12)"/><path class="cls-13" d="M320.62,501.52a3.51,3.51,0,0,1,.7.44c.29.17.78.52,1.48,1.05a3.61,3.61,0,0,1,.88.7l-.79,1.05c-.52.7-1.05,1.34-1.57,1.92a17.94,17.94,0,0,1-1.67,1.32,7.59,7.59,0,0,1-1.31,1,13.32,13.32,0,0,1-1.49.7,13.55,13.55,0,0,1-1.66.61c-.58.12-1.22.23-1.92.35s-1.26.09-1.84.09a6.3,6.3,0,0,1-1-.13q-.09,0,0-.48l.08-.44.88-.26a8.25,8.25,0,0,0,1.66-.53,5.11,5.11,0,0,0,1.31-.79,7.47,7.47,0,0,0,1.49-1.22,18.8,18.8,0,0,0,2.19-2.19c.81-.93,1.43-1.66,1.84-2.19A3.68,3.68,0,0,1,320.62,501.52Zm8-15.13h1.92l-.08.43a10.25,10.25,0,0,1-.27,1.14,6.41,6.41,0,0,1-.43,1.14l-.35.44H337l7.61.08v.79l.09.79H312.22v-1.66h14.35v-3.15Zm-10.94-11.21h1.84v1.23h17.67v-1.23H340v4.2a37.88,37.88,0,0,1-.17,4.9,3.72,3.72,0,0,1-.35,1.05,3.59,3.59,0,0,1-.53.75,2.39,2.39,0,0,1-.83.61,1.92,1.92,0,0,1-.74.22c-.18,0-.27-.15-.27-.44V486h-19l-.35.35a4,4,0,0,1-.62.52,2.92,2.92,0,0,1-.87.09h-.61V475.18Zm19.86,17.16H339v2.79a21.17,21.17,0,0,1-.17,3.51,10.06,10.06,0,0,1-.44,1.31,3.39,3.39,0,0,1-.7,1.05,5.81,5.81,0,0,1-1,.52l-.57.18a2,2,0,0,1-.13-.7v-.62l-2.89-.08h-3v7.17l-.35,1a6.76,6.76,0,0,1-.7,1.49,3.34,3.34,0,0,1-.74,1,2.58,2.58,0,0,1-.74.52,2.63,2.63,0,0,1-.79.09h-.44v-5.6l-.09-5.52-3.41-.08h-3.32l-.35.43a2.86,2.86,0,0,1-.75.79,1.73,1.73,0,0,1-1,.27h-.7v-9.28h1.92c1.28,0,1.93.07,1.93.22s2.56.22,7.7.22H336v-.61Zm-9.18-10.16h-8.75l-.18.62a4.6,4.6,0,0,1-.26,1.05l-.09.43h18.11v-2.1Zm0-4.11h-8.84v2.37h17.67v-2.37Zm0,16.54h-7.7v1.31a7.87,7.87,0,0,1-.18,2l-.17.79H336v-4.11Zm6.47,7.44a3.08,3.08,0,0,1,.7.17,6.79,6.79,0,0,1,1.49.7,12.57,12.57,0,0,1,1.92,1.23,32.25,32.25,0,0,1,2.72,2.36,13.44,13.44,0,0,1,1.62,1.75,18.76,18.76,0,0,1-1.8,1.14c-1.17.75-1.76,1.14-1.79,1.14a5.53,5.53,0,0,1-.57-.79c-.29-.47-.73-1.08-1.31-1.84a29.15,29.15,0,0,0-2-2.36c-.87-.88-1.43-1.4-1.66-1.58a2.85,2.85,0,0,1-.52-.48,5.51,5.51,0,0,1,.52-.74C334.44,502.28,334.67,502.05,334.79,502.05Z" transform="translate(-212.1 -72.12)"/><path class="cls-14" d="M404.85,474.83h1.92v.71l.09.61h22.66v-1.4h3.85v16.36q0,16.27-.18,17a9.07,9.07,0,0,1-.34,1.14,3.3,3.3,0,0,1-.62.92,2.92,2.92,0,0,1-.92.7,2.53,2.53,0,0,1-1.09.22h-.7V477.9H406.77V493q0,15.14-.13,15.92a4.51,4.51,0,0,1-.4,1.31,3.67,3.67,0,0,1-.78,1.05,3.22,3.22,0,0,1-1,.62,1.65,1.65,0,0,1-.88.08h-.44L403,493.38V474.75Zm13.21,8h10.32l.09.79v.87h-21v-.79a2.05,2.05,0,0,1,.09-.87Zm-6.3,5h1.57v1h9v-1h3.06l-.09,5.59a42.69,42.69,0,0,1-.22,6.35,3.8,3.8,0,0,1-.52,1,6.32,6.32,0,0,1-.66.7,1.42,1.42,0,0,1-1,.31l-.61.08v-2.71h-9.19l-.18.61c-.17.41-.29.7-.35.88s-.25.35-.39.52a1.66,1.66,0,0,1-.66.44,2.26,2.26,0,0,1-.87.18h-.44v-14Zm6,2.62h-4.47v7h9v-7Z" transform="translate(-212.1 -72.12)"/><path class="cls-15" d="M506.24,474.75h2v.7a5.28,5.28,0,0,1-.18,1.31,7,7,0,0,1-.35,1.22,3.5,3.5,0,0,1-.43.79,3,3,0,0,1-.62.61l-.44.27h8.49V479l1.84-.09h1.84v13.21h9v1.66h-9V501a73.91,73.91,0,0,1-.18,7.7,7.19,7.19,0,0,1-.61,1.13,4.54,4.54,0,0,1-.79.79,7.84,7.84,0,0,1-1,.61,8,8,0,0,1-.88.35h-.26V493.82h-6.65l-6.56.09-.09,3.59a31.12,31.12,0,0,1-.26,4.29,12.25,12.25,0,0,1-.44,1.74,8.64,8.64,0,0,1-.79,1.84c-.34.65-.7,1.23-1,1.75a10.84,10.84,0,0,1-1.32,1.58A10.68,10.68,0,0,1,496,510c-.47.35-1.08.76-1.84,1.22a5.61,5.61,0,0,1-1.23.53c-.11,0-.17-.21-.17-.61v-.7l.7-.44a8,8,0,0,0,1.31-1.23A8.89,8.89,0,0,0,496,507.3a8.61,8.61,0,0,0,.78-1.4,11.12,11.12,0,0,0,.53-1.58,33.82,33.82,0,0,0,.26-5.68l.09-4.82h-7.44v-1.66h7.44V479l1.93-.09h1.83v.7h2.89v-4.9Zm1.93,6.65c-4.43,0-6.67,0-6.69,0s-.05,1.83-.05,5.38v5.34h13.3V481.4Zm-2.41.61c0-.12.06-.17.09-.17a1.68,1.68,0,0,1,.39.17,1.94,1.94,0,0,1,.71.87A15.54,15.54,0,0,0,509,486a7.82,7.82,0,0,0,1.14,1.23c.35.29.53.47.53.53a10.6,10.6,0,0,1-1.62,1,17.83,17.83,0,0,1-1.71.87c-.06,0-.2-.14-.43-.44a7.7,7.7,0,0,1-.53-1,6,6,0,0,1-.53-1.41,15.85,15.85,0,0,1-.17-2.71C505.72,482.8,505.73,482.13,505.76,482Zm.75,13.3a.91.91,0,0,1,.35.18c.17.05.41.37.7,1s.76,1.15,1.22,1.88a9.8,9.8,0,0,0,1.66,2l1,1.05-1.23.61a6.22,6.22,0,0,1-1,.57,4.77,4.77,0,0,0-.7.39c-.35.18-.58.19-.7.05a7.53,7.53,0,0,1-.61-1.1,5.26,5.26,0,0,1-.7-1.83,14.44,14.44,0,0,1-.18-2.54,10.57,10.57,0,0,1,.09-1.84C506.42,495.43,506.45,495.31,506.51,495.31Z" transform="translate(-212.1 -72.12)"/><path class="cls-16" d="M446.12,161.46H389.37a11.32,11.32,0,0,1-11.3-11.31v-5a11.31,11.31,0,0,1,11.3-11.3h56.75a11.31,11.31,0,0,1,11.3,11.3v5A11.32,11.32,0,0,1,446.12,161.46ZM389.37,140a5.18,5.18,0,0,0-5.17,5.17v5a5.18,5.18,0,0,0,5.17,5.17h56.75a5.18,5.18,0,0,0,5.17-5.17v-5a5.18,5.18,0,0,0-5.17-5.17Z" transform="translate(-212.1 -72.12)"/><path class="cls-17" d="M454.36,267.6a3.08,3.08,0,0,1-3.07-3.07V230.92a5.18,5.18,0,0,0-5.17-5.18H389.37a5.18,5.18,0,0,0-5.17,5.18v33.61a3.07,3.07,0,1,1-6.13,0V230.92a11.32,11.32,0,0,1,11.3-11.31h56.75a11.32,11.32,0,0,1,11.3,11.31v33.61A3.07,3.07,0,0,1,454.36,267.6Z" transform="translate(-212.1 -72.12)"/><path class="cls-18" d="M454.36,375.87a3.08,3.08,0,0,1-3.07-3.07V286.1a5.18,5.18,0,0,0-5.17-5.18H389.37a3.07,3.07,0,0,1,0-6.13h56.75a11.32,11.32,0,0,1,11.3,11.31v86.7A3.07,3.07,0,0,1,454.36,375.87Z" transform="translate(-212.1 -72.12)"/><path class="cls-19" d="M373.66,356.73a3.06,3.06,0,0,1-1.19-5.89c4.54-1.9,5.59-10.65,5.6-13.57V264.53a3.07,3.07,0,1,1,6.13,0v72.75c0,1.56-.26,15.41-9.36,19.21A2.93,2.93,0,0,1,373.66,356.73Z" transform="translate(-212.1 -72.12)"/><path class="cls-20" d="M449.42,201H386.07a8,8,0,0,1-8-8v-4.83a8,8,0,0,1,8-8h63.35a8,8,0,0,1,8,8V193A8,8,0,0,1,449.42,201Zm-63.35-14.7a1.87,1.87,0,0,0-1.87,1.87V193a1.87,1.87,0,0,0,1.87,1.87h63.35a1.87,1.87,0,0,0,1.87-1.87v-4.83a1.87,1.87,0,0,0-1.87-1.87Z" transform="translate(-212.1 -72.12)"/><path class="cls-21" d="M434.05,266.29H401.44a11.31,11.31,0,0,1-11.3-11.3v-.92a11.31,11.31,0,0,1,11.3-11.3h32.61a11.32,11.32,0,0,1,11.31,11.3V255A11.32,11.32,0,0,1,434.05,266.29ZM401.44,248.9a5.18,5.18,0,0,0-5.17,5.17V255a5.18,5.18,0,0,0,5.17,5.17h32.61a5.18,5.18,0,0,0,5.18-5.17v-.92a5.18,5.18,0,0,0-5.18-5.17Z" transform="translate(-212.1 -72.12)"/><path class="cls-22" d="M441.92,150.72H393.57a3.07,3.07,0,0,1,0-6.14h48.35a3.07,3.07,0,1,1,0,6.14Z" transform="translate(-212.1 -72.12)"/><path class="cls-23" d="M603.72,175.37H381.14a3.07,3.07,0,1,1,0-6.13H603.72c1,0,24.07-.28,24.07-18.15a3.07,3.07,0,1,1,6.13,0C633.92,170.29,614.16,175.37,603.72,175.37Z" transform="translate(-212.1 -72.12)"/><path class="cls-24" d="M464.88,308.59H242.3c-10.45,0-30.2-5.08-30.2-24.29a3.07,3.07,0,0,1,6.13,0c0,17.95,23.08,18.16,24.07,18.16H464.88a3.07,3.07,0,1,1,0,6.13Z" transform="translate(-212.1 -72.12)"/><path class="cls-25" d="M417.75,174.76a3.07,3.07,0,0,1-3.07-3.06v-5.31a3.07,3.07,0,1,1,6.13,0v5.31A3.06,3.06,0,0,1,417.75,174.76Z" transform="translate(-212.1 -72.12)"/><path class="cls-26" d="M417.75,217.68a3.08,3.08,0,0,1-3.07-3.07V199.19a3.07,3.07,0,1,1,6.13,0v15.42A3.07,3.07,0,0,1,417.75,217.68Z" transform="translate(-212.1 -72.12)"/><path class="cls-27" d="M385.27,217.68a3.07,3.07,0,0,1-3.07-3.07V207.5a3.07,3.07,0,1,1,6.13,0v7.11A3.07,3.07,0,0,1,385.27,217.68Z" transform="translate(-212.1 -72.12)"/><path class="cls-28" d="M450.23,217.68a3.08,3.08,0,0,1-3.07-3.07V207.5a3.07,3.07,0,1,1,6.13,0v7.11A3.07,3.07,0,0,1,450.23,217.68Z" transform="translate(-212.1 -72.12)"/><path class="cls-29" d="M441.42,238H392.33a3.07,3.07,0,0,1,0-6.13h49.09a3.07,3.07,0,1,1,0,6.13Z" transform="translate(-212.1 -72.12)"/><path class="cls-30" d="M417.75,321.9a3.07,3.07,0,0,1-3.07-3.06V295.49a3.07,3.07,0,1,1,6.13,0v23.35A3.06,3.06,0,0,1,417.75,321.9Z" transform="translate(-212.1 -72.12)"/><path class="cls-31" d="M289.11,294.91A146.87,146.87,0,0,1,272,226c0-81.48,66.29-147.77,147.77-147.77a148,148,0,0,1,133,83.49h6.74A154.08,154.08,0,0,0,419.79,72.12c-84.86,0-153.9,69-153.9,153.9a152.9,152.9,0,0,0,16.34,68.89Z" transform="translate(-212.1 -72.12)"/><path class="cls-32" d="M567.29,182.17h-6.37A147.14,147.14,0,0,1,567.57,226c0,81.49-66.3,147.78-147.78,147.78a147.6,147.6,0,0,1-117.62-58.46h-7.6a153.78,153.78,0,0,0,125.22,64.59c84.87,0,153.91-69,153.91-153.91A153.07,153.07,0,0,0,567.29,182.17Z" transform="translate(-212.1 -72.12)"/></svg>